<?xml version="1.0" standalone="no"?>
<!DOCTYPE svg PUBLIC "-//W3C//DTD SVG 20010904//EN"
 "http://www.w3.org/TR/2001/REC-SVG-20010904/DTD/svg10.dtd">
<svg version="1.0" xmlns="http://www.w3.org/2000/svg"
 width="828.000000pt" height="828.000000pt" viewBox="0 0 828.000000 828.000000"
 preserveAspectRatio="xMidYMid meet">
<metadata>
Created by potrace 1.14, written by Peter Selinger 2001-2017
</metadata>
<g transform="translate(0.000000,828.000000) scale(0.100000,-0.100000)"
fill="#000000" stroke="none">
<path d="M0 4140 l0 -4140 2005 0 2005 0 1 23 c1 21 1 21 9 -3 7 -23 8 -23 9
-3 1 12 -4 25 -9 28 -6 4 -8 16 -5 28 5 19 4 19 -9 -3 l-14 -24 -4 24 c-2 18
-8 24 -22 22 -11 -2 -17 1 -14 10 3 7 10 13 16 13 16 0 25 12 17 25 -6 9 -10
9 -16 -1 -6 -11 -9 -10 -14 4 -4 9 0 23 8 31 13 14 16 14 21 -1 5 -13 12 -6
28 26 11 23 17 45 14 49 -4 3 -11 1 -15 -7 -6 -9 -10 -5 -13 13 -4 22 -3 24 9
14 9 -7 17 -8 21 -2 6 8 47 15 110 17 16 1 25 10 31 31 l9 31 2 -35 c1 -31 2
-33 10 -12 15 35 34 28 26 -10 -4 -24 -3 -29 4 -18 5 8 10 28 10 43 0 16 4 26
10 22 5 -3 7 -12 4 -19 -9 -23 13 -30 108 -36 10 -1 15 -7 11 -16 -3 -8 0 -14
6 -14 6 0 11 7 11 15 0 9 9 15 22 15 19 0 20 2 7 13 -20 16 -42 67 -29 67 6 0
10 -4 10 -10 0 -5 8 -7 18 -3 14 5 15 3 5 -8 -18 -18 -16 -29 3 -29 9 0 23 -8
30 -17 12 -16 13 -16 14 9 0 15 5 30 11 33 6 4 8 14 5 24 -6 15 -5 15 7 -1 17
-21 51 -27 52 -9 0 8 6 16 13 19 7 2 10 -2 6 -12 -4 -11 -1 -16 10 -16 9 0 16
8 16 20 0 22 35 28 44 8 3 -7 3 7 0 31 -4 31 -3 41 5 37 6 -4 11 -16 11 -26 0
-10 3 -21 8 -23 4 -3 5 20 3 50 -1 31 1 58 6 62 5 3 15 15 22 26 9 14 11 15 7
3 -3 -10 -1 -20 4 -23 5 -3 11 12 13 32 l4 38 1 -38 c2 -35 3 -37 18 -23 8 9
21 16 27 16 8 0 7 -4 -1 -12 -18 -18 -14 -34 8 -34 17 0 20 7 20 48 0 26 5 50
10 53 6 4 10 -7 10 -24 0 -34 11 -39 34 -16 8 9 22 12 32 8 12 -4 15 -2 12 8
-3 8 -11 13 -17 11 -17 -3 -13 12 9 38 18 21 26 17 21 -13 -1 -4 6 -10 14 -13
19 -8 19 -24 0 -24 -8 0 -15 -7 -15 -15 0 -8 5 -15 11 -15 18 0 79 52 79 67 0
8 -4 12 -9 9 -5 -4 -7 3 -4 14 6 23 33 27 33 5 0 -17 16 -20 25 -6 3 6 -3 15
-12 20 -17 10 -17 12 -2 21 9 5 20 21 23 35 10 40 31 11 44 -60 l11 -60 -5 55
c-3 30 -7 66 -10 80 -4 18 -3 21 4 11 6 -8 17 -11 26 -8 12 5 16 0 16 -18 0
-14 -5 -25 -11 -25 -5 0 -7 -5 -4 -11 4 -6 10 -8 13 -5 3 3 11 1 18 -5 10 -8
18 -7 29 5 18 18 46 11 38 -10 -8 -21 25 -17 36 4 13 25 3 60 -20 67 -10 4
-19 11 -19 16 0 6 6 7 12 3 32 -20 48 -11 50 25 l1 36 4 -32 c3 -25 9 -33 24
-33 23 0 25 13 4 30 -9 8 -13 21 -9 36 4 15 2 24 -5 24 -6 0 -11 9 -11 21 0
16 4 19 20 14 14 -5 20 -2 20 9 0 9 -5 16 -11 16 -5 0 -9 8 -8 18 3 35 -2 48
-11 27 -8 -20 -9 -20 -9 1 -1 11 9 31 20 43 18 19 19 25 8 32 -10 6 -14 32
-14 91 -1 46 -5 92 -10 102 -6 14 -5 17 3 12 14 -8 14 0 2 29 l-9 20 -1 -20
c0 -18 -2 -18 -10 -3 -11 18 -4 48 11 48 5 0 9 7 9 15 0 13 -4 12 -22 -5 -25
-23 -23 -24 -31 17 -5 25 -3 31 7 27 21 -8 31 17 13 31 -10 7 -17 21 -17 31 0
16 -2 17 -10 4 -9 -13 -11 -13 -20 0 -13 19 -13 30 0 30 6 0 10 7 10 15 0 8
-4 15 -10 15 -5 0 -10 6 -10 13 0 14 -39 41 -47 33 -10 -9 -34 47 -30 66 3 10
1 18 -4 18 -5 0 -9 -9 -9 -19 0 -32 -20 -35 -21 -4 -1 44 -13 66 -40 70 -13 2
-25 8 -27 13 -2 6 -10 10 -18 10 -8 0 -14 7 -14 15 0 8 5 15 10 15 6 0 10 -5
10 -11 0 -5 5 -7 10 -4 15 9 12 25 -5 25 -8 0 -15 5 -15 11 0 16 -61 68 -75
63 -15 -6 -36 41 -29 63 5 12 1 11 -10 -4 -19 -26 -36 -30 -36 -9 0 7 -9 16
-20 19 -11 3 -24 15 -28 28 -7 19 -10 20 -15 6 -4 -10 -11 -17 -17 -17 -17 0
-11 28 7 39 10 6 12 11 6 11 -7 0 -13 7 -13 16 0 12 -5 11 -19 -7 l-20 -24 -9
25 -10 25 -10 -25 c-8 -18 -11 -20 -11 -7 -1 20 -17 23 -25 5 -3 -7 -3 1 0 17
4 19 2 25 -3 18 -7 -9 -18 -10 -46 -2 -20 5 -36 13 -36 17 3 20 -3 32 -16 32
-9 0 -18 7 -21 15 -5 11 -10 12 -26 4 -11 -6 -25 -8 -33 -6 -7 3 -17 1 -23 -5
-6 -6 -12 0 -17 19 l-7 28 -14 -27 c-18 -34 -34 -36 -34 -5 0 32 -52 58 -112
56 -27 -1 -48 -6 -48 -11 0 -17 -18 -7 -23 13 -7 27 -30 20 -37 -12 -7 -31
-40 -39 -40 -10 0 12 -4 21 -10 21 -5 0 -10 -9 -10 -19 0 -10 -7 -21 -15 -25
-18 -6 -19 -1 -5 25 8 15 7 19 -4 19 -8 0 -16 -10 -18 -22 -2 -18 -8 -22 -28
-20 -14 2 -26 8 -28 13 -4 11 -33 12 -30 2 0 -5 -2 -16 -6 -25 -6 -14 -13 -15
-34 -7 -18 7 -27 6 -33 -3 -4 -6 -24 -12 -43 -11 -20 1 -36 -3 -36 -8 0 -15
-15 -10 -38 11 -12 12 -22 18 -22 14 0 -4 -8 0 -17 8 -10 8 -28 14 -40 13 -13
-1 -23 3 -23 8 0 5 -7 6 -16 3 -9 -4 -23 -1 -32 6 -8 7 -22 14 -31 14 -29 3
-61 16 -61 26 0 5 -4 6 -10 3 -6 -3 -10 -1 -10 5 0 6 -5 8 -11 5 -14 -9 -69
14 -69 29 0 6 -4 5 -9 -3 -8 -12 -12 -12 -25 -2 -9 8 -16 10 -16 6 0 -4 -7 -2
-15 5 -11 9 -15 9 -15 1 0 -11 -41 10 -68 36 -13 13 -28 17 -47 13 -5 -1 -15
6 -21 15 -8 11 -14 12 -19 5 -4 -7 -16 -3 -36 10 -16 12 -33 18 -39 15 -5 -3
-10 -1 -10 4 0 6 -8 11 -18 11 -23 0 -72 22 -72 33 0 5 -5 5 -10 2 -6 -3 -10
-1 -10 5 0 6 -5 8 -10 5 -6 -3 -10 -1 -10 5 0 6 -6 10 -12 9 -7 -1 -26 3 -41
9 -16 7 -35 12 -43 12 -8 0 -14 5 -14 10 0 6 -9 10 -20 10 -11 0 -23 7 -26 15
-4 8 -18 15 -33 15 -15 0 -31 3 -35 7 -4 4 -13 8 -19 9 -7 0 -19 2 -27 2 -9 1
-35 20 -59 42 -23 22 -45 39 -49 38 -19 -5 -70 15 -82 31 -7 11 -19 17 -26 14
-7 -2 -23 9 -35 27 -13 17 -29 28 -37 25 -7 -3 -26 2 -42 10 -39 20 -40 20
-30 -16 7 -24 5 -35 -8 -49 -11 -12 -22 -16 -31 -11 -16 10 -5 95 15 112 11 9
14 8 14 -1 0 -10 3 -10 14 -1 11 9 15 9 19 -1 4 -8 6 -7 6 5 1 9 5 17 11 17 5
0 9 8 8 18 -3 34 2 53 12 47 7 -4 9 2 4 19 -5 22 -4 25 12 19 13 -5 16 -3 11
10 -3 9 -2 19 3 22 6 4 10 19 10 34 0 16 7 34 14 41 11 8 12 18 5 36 -12 32
-11 43 1 24 8 -12 10 -11 10 8 0 26 17 30 23 4 3 -9 5 0 6 21 1 21 -4 37 -10
37 -8 0 -9 13 -5 43 4 23 9 69 11 101 2 32 8 62 13 65 4 3 11 14 15 23 4 12
12 15 23 11 12 -5 15 -3 9 6 -5 10 -2 11 14 6 15 -5 21 -2 21 9 0 9 5 16 10
16 6 0 10 -5 10 -11 0 -6 21 8 46 30 26 23 54 41 63 41 9 0 30 9 47 19 18 11
36 16 44 11 8 -5 21 -1 33 11 11 10 24 16 29 13 4 -3 8 0 8 6 0 7 6 10 13 7 8
-3 20 3 27 13 7 10 20 15 32 12 10 -2 26 2 36 11 16 14 75 27 132 28 14 0 30
5 36 10 6 5 32 10 58 11 33 1 51 7 59 18 8 14 17 16 39 10 23 -7 30 -5 39 11
5 11 14 17 18 14 5 -3 12 3 16 13 6 14 9 12 20 -13 l13 -30 7 40 c3 22 10 48
16 57 12 23 12 48 -1 48 -5 0 -10 -7 -10 -15 0 -9 -6 -12 -15 -9 -18 7 -20 31
-3 37 9 3 7 9 -6 20 -19 14 -138 16 -223 3 -18 -3 -35 -1 -38 4 -3 5 -13 6
-21 3 -9 -3 -20 0 -25 8 -7 12 -9 12 -9 0 0 -11 -3 -11 -15 -1 -8 7 -15 9 -15
5 0 -5 -9 0 -19 9 -13 11 -25 15 -33 10 -21 -14 -61 -13 -96 3 -19 8 -58 15
-88 15 -36 0 -54 5 -54 13 0 7 -6 18 -14 24 -12 10 -14 8 -9 -11 3 -17 2 -19
-5 -9 -5 7 -15 10 -21 7 -6 -4 -11 -3 -11 2 0 11 -65 42 -90 42 -10 0 -20 5
-22 11 -2 7 -22 14 -43 16 -22 2 -44 10 -50 17 -5 7 -28 19 -50 27 -22 8 -42
16 -45 19 -3 3 -12 6 -20 8 -27 5 -90 35 -90 43 0 4 -13 6 -30 4 -17 -2 -30 0
-30 5 0 15 -28 12 -33 -2 -3 -9 -10 -8 -26 6 -14 13 -21 15 -21 6 0 -10 -4 -9
-17 1 -15 12 -16 12 -9 -6 6 -16 5 -18 -5 -7 -19 18 -26 15 -34 -15 -4 -19 -9
-23 -14 -14 -7 11 -10 11 -17 0 -6 -10 -10 -7 -15 11 l-7 25 -2 -25 c-1 -23
-2 -23 -10 -5 -7 17 -9 17 -9 3 -1 -23 -10 -23 -27 0 -13 16 -13 16 -15 -3 -1
-17 -2 -16 -9 5 -8 25 -8 24 -9 -5 -1 -16 -6 -37 -11 -45 -8 -12 -10 -8 -11
15 -2 30 -2 30 -9 -5 -6 -30 -8 -31 -9 -8 -1 32 -36 33 -36 0 -1 -30 -15 -40
-15 -11 -1 22 -1 23 -11 5 -9 -15 -13 -16 -20 -5 -7 12 -9 11 -10 -1 0 -10 -3
-8 -9 5 -8 18 -9 18 -10 -5 l-1 -25 -25 30 -25 30 7 -29 7 -29 -22 22 c-11 11
-21 26 -21 32 0 6 -9 9 -20 6 -11 -3 -18 -1 -15 3 8 12 -6 41 -16 34 -5 -3
-10 5 -10 18 -1 17 -3 18 -6 6 -2 -10 -8 -18 -12 -18 -16 0 -51 38 -51 56 0
17 -1 17 -14 -2 -14 -18 -15 -18 -21 9 -5 20 -11 25 -18 18 -15 -15 -27 -14
-27 4 0 8 -9 15 -20 15 -11 0 -20 6 -20 13 0 8 -3 7 -10 -3 -8 -13 -11 -12
-24 5 -9 11 -16 34 -16 51 0 17 -7 37 -15 44 -14 11 -13 14 1 25 12 8 14 14 6
19 -7 4 -12 3 -12 -3 0 -5 -9 -9 -20 -8 -13 1 -18 8 -17 22 1 11 -3 19 -10 18
-7 -2 -13 2 -13 8 0 5 -5 7 -12 3 -7 -5 -9 -2 -5 9 4 12 2 14 -10 10 -12 -5
-14 -1 -9 15 6 17 4 21 -8 16 -9 -3 -16 -1 -16 5 0 6 4 11 9 11 5 0 9 16 8 35
-1 40 -11 46 -22 13 -7 -22 -7 -22 -12 -3 -3 11 -9 24 -14 30 -5 5 -9 16 -9
24 0 8 -8 23 -17 33 -14 16 -15 23 -5 39 13 21 8 39 -10 39 -6 0 -17 8 -24 18
-9 11 -13 13 -14 4 0 -7 -5 -10 -11 -7 -6 5 -3 13 10 22 21 14 30 73 11 73 -5
0 -7 6 -4 14 3 7 -6 35 -20 61 -30 56 -33 77 -10 68 14 -5 15 -3 6 12 -7 14
-6 25 3 39 7 12 16 41 19 66 4 24 12 50 18 57 7 9 7 17 -2 28 -8 10 -9 15 -2
15 7 0 10 18 8 46 -2 39 1 48 20 56 17 8 23 21 26 57 2 25 0 48 -4 49 -13 6
-9 22 5 20 8 -2 12 13 12 52 0 30 6 65 13 77 6 12 13 32 13 45 1 17 3 18 6 6
9 -36 21 -16 22 37 0 60 7 79 23 69 6 -4 8 1 3 15 -4 15 -3 21 7 19 7 -2 12 4
10 14 -2 12 2 16 13 12 22 -9 19 9 -5 26 -19 14 -29 37 -11 26 5 -3 12 9 16
27 l8 32 7 -40 c6 -38 6 -39 11 -10 2 17 1 59 -3 95 -5 51 -3 67 8 73 9 5 12
16 9 27 -3 10 -2 27 4 37 22 40 27 63 29 116 1 25 10 46 26 62 15 15 20 26 13
28 -7 3 0 14 16 29 19 17 24 27 16 35 -8 8 -7 23 4 53 12 37 16 41 24 25 10
-17 11 -17 17 3 4 13 1 31 -9 45 -14 22 -14 26 0 37 8 7 15 20 16 29 0 12 2
11 9 -4 5 -11 9 -16 9 -11 1 5 8 3 16 -4 13 -11 14 -8 9 19 -6 26 -4 30 10 25
9 -3 16 -13 16 -22 0 -8 3 -12 7 -8 4 3 13 -4 20 -16 l12 -23 1 27 c0 22 4 26
25 23 14 -1 25 2 25 8 0 5 9 7 21 4 12 -3 22 0 26 9 7 20 23 18 23 -3 0 -13 3
-14 12 -5 10 10 10 17 0 33 -17 27 -5 40 14 15 14 -20 14 -20 15 0 0 13 2 15
6 4 12 -37 27 -59 36 -53 6 4 28 7 49 8 21 1 41 5 45 8 3 4 16 7 28 7 13 0 28
12 39 31 16 28 22 31 53 26 56 -9 121 -57 143 -104 21 -46 31 -56 23 -23 -5
20 11 28 22 10 3 -5 32 -26 63 -47 60 -39 122 -93 122 -106 0 -5 -4 -5 -10 -2
-5 3 -10 -1 -10 -9 0 -8 -8 -16 -17 -19 -14 -3 -11 -7 12 -16 17 -7 37 -17 47
-22 11 -5 18 -3 22 6 6 17 28 19 54 6 9 -5 25 -12 36 -15 15 -5 17 -13 12 -37
-5 -27 -4 -30 14 -24 16 5 20 2 20 -14 0 -12 5 -21 11 -21 6 0 9 7 5 15 -3 8
-2 15 2 15 14 0 32 -24 32 -42 0 -20 26 -35 38 -23 4 4 1 10 -5 12 -7 3 -13
11 -13 19 0 9 5 12 10 9 6 -3 10 -1 10 5 0 6 10 10 22 8 13 -2 31 -20 47 -49
14 -25 36 -55 48 -66 25 -25 90 -46 99 -32 3 5 10 6 16 3 7 -5 9 -1 5 9 -3 10
-2 17 3 17 6 0 10 -9 10 -20 0 -11 3 -19 8 -18 19 5 71 -15 76 -29 4 -9 9 -13
13 -10 3 4 27 -8 52 -27 25 -18 54 -36 64 -39 9 -4 22 -17 27 -29 5 -13 9 -19
9 -14 1 5 9 2 18 -5 15 -12 16 -12 10 3 -4 12 -2 15 9 11 11 -4 14 -13 9 -30
-4 -18 -2 -24 7 -21 7 3 21 -4 32 -13 10 -10 22 -16 26 -14 4 3 25 -9 46 -26
21 -17 51 -33 65 -36 19 -3 29 -13 34 -31 3 -14 9 -21 13 -15 12 18 55 8 63
-15 5 -12 13 -22 19 -22 6 0 8 -4 5 -10 -3 -5 0 -7 8 -4 10 3 16 -5 20 -25 6
-31 27 -44 27 -17 0 26 56 4 63 -26 3 -11 10 -17 15 -14 5 3 24 1 41 -5 23 -8
29 -14 21 -23 -7 -9 -3 -19 14 -34 27 -22 36 -19 36 12 0 17 2 18 10 6 5 -9 5
-19 -1 -26 -13 -16 0 -46 18 -39 12 4 14 -1 11 -19 -4 -22 -3 -24 13 -16 27
15 32 29 18 48 -12 15 -12 15 7 0 28 -25 37 -22 30 7 -6 24 -5 25 14 13 22
-14 25 -24 9 -33 -6 -5 -4 -12 8 -21 10 -7 14 -14 9 -14 -4 0 -1 -11 8 -25 20
-31 20 -36 0 -28 -14 5 -16 1 -12 -21 3 -14 1 -29 -3 -32 -5 -3 -9 16 -9 43
-1 61 -16 83 -47 68 -13 -7 -20 -14 -17 -18 3 -3 0 -15 -6 -27 -8 -14 -8 -25
-1 -33 6 -8 6 -18 1 -27 -8 -12 -10 -9 -11 10 l-1 25 -8 -25 c-5 -17 -8 -19
-9 -7 -1 9 -5 17 -11 17 -5 0 -10 -8 -11 -17 0 -15 -2 -15 -9 2 -8 18 -9 18
-10 -5 l0 -25 -19 24 -18 24 -7 -56 c-7 -51 -10 -56 -37 -62 -21 -5 -29 -12
-29 -28 0 -18 -2 -19 -10 -7 -7 11 -10 5 -10 -23 0 -49 -20 -39 -21 11 -1 20
-4 28 -6 16 -3 -16 -10 -20 -31 -18 -24 3 -25 3 -4 -4 13 -4 22 -11 20 -17 -2
-5 -6 -9 -9 -8 -4 1 -15 -7 -24 -17 -10 -11 -13 -20 -7 -20 6 0 12 6 15 13 2
6 7 9 11 6 10 -10 -14 -96 -30 -110 -12 -10 -12 -14 2 -30 20 -22 14 -44 -11
-44 -15 0 -22 -11 -29 -45 -5 -25 -11 -39 -14 -31 -3 9 -9 1 -16 -20 -8 -23
-9 -39 -2 -51 7 -11 6 -25 -3 -44 -11 -25 -11 -26 5 -13 16 13 17 12 12 -14
-4 -18 -1 -27 8 -27 7 0 16 -16 20 -36 4 -19 13 -38 21 -41 12 -5 12 -7 1 -15
-10 -7 -10 -11 0 -15 6 -2 12 -18 12 -34 0 -17 6 -32 15 -35 8 -4 15 -12 15
-20 0 -7 8 -19 19 -26 11 -8 19 -26 19 -43 1 -65 5 -91 14 -102 6 -7 7 -13 4
-13 -4 0 0 -7 9 -16 9 -9 15 -26 14 -38 0 -11 0 -23 1 -26 1 -3 2 -38 3 -77 1
-82 18 -98 36 -35 9 33 10 31 5 -23 -7 -70 -10 -76 -29 -68 -8 3 -15 1 -15 -5
0 -5 7 -13 16 -16 8 -3 12 -10 9 -16 -4 -6 -10 -8 -15 -5 -4 3 -10 -5 -13 -16
-4 -14 -2 -19 8 -16 9 4 11 -1 8 -14 -3 -10 -1 -19 4 -19 11 0 33 58 33 89 0
13 4 20 11 16 7 -5 9 -28 5 -61 -5 -52 -4 -54 20 -54 19 0 26 -6 31 -30 9 -48
26 -49 18 -2 -5 34 -3 42 14 51 20 11 51 5 63 -13 7 -11 -9 -47 -26 -58 -14
-9 -7 -14 31 -22 25 -6 32 -4 36 11 3 10 6 3 7 -17 1 -19 4 -27 7 -17 5 21 23
23 23 2 0 -8 5 -15 10 -15 6 0 15 -11 20 -24 6 -18 14 -23 29 -19 12 3 29 -3
42 -16 13 -12 26 -21 30 -21 3 0 14 -15 22 -32 11 -23 23 -33 39 -33 16 0 22
-5 20 -17 -3 -20 13 -24 23 -7 5 7 13 5 25 -6 11 -10 20 -12 24 -7 3 6 14 9
24 8 9 -2 20 2 24 8 4 6 4 -16 1 -48 -5 -44 -3 -60 8 -67 25 -15 33 -10 15 10
-14 15 -16 29 -11 60 4 25 12 41 21 41 8 0 14 -5 14 -11 0 -5 -4 -7 -10 -4 -5
3 -10 1 -10 -4 0 -6 9 -11 20 -11 11 0 20 7 20 15 0 8 4 15 10 15 5 0 7 -7 4
-15 -4 -8 -1 -15 5 -15 6 0 10 3 10 8 -1 4 -1 14 0 22 1 13 2 13 11 0 8 -13
11 -11 16 8 9 30 22 28 26 -5 2 -19 8 -27 18 -24 8 2 23 4 33 5 20 0 19 27 -2
34 -9 3 -11 0 -6 -8 5 -8 3 -11 -6 -8 -8 2 -15 17 -17 31 -2 15 -8 25 -13 22
-10 -7 -39 18 -39 34 0 6 5 11 10 11 6 0 10 -5 10 -11 0 -8 4 -8 14 0 11 9 15
8 20 -5 5 -13 9 -14 20 -5 10 8 16 9 21 1 3 -5 14 -10 24 -10 10 0 23 -10 30
-22 10 -21 11 -20 8 12 -2 19 -8 43 -12 54 -6 14 -4 17 11 14 14 -2 18 -10 16
-31 -3 -22 1 -27 17 -27 12 0 21 4 21 10 0 5 7 7 15 4 10 -4 13 -2 10 8 -3 8
4 19 18 27 23 12 31 40 15 52 -5 3 -1 14 8 25 15 19 15 18 9 -3 -5 -18 1 -25
32 -39 21 -10 41 -22 44 -27 4 -5 15 -7 25 -5 15 4 11 8 -18 23 -40 20 -54 51
-18 40 14 -5 20 -2 20 10 0 12 -6 15 -20 10 -16 -5 -20 -2 -20 14 0 12 -4 21
-10 21 -5 0 -7 6 -4 14 3 8 1 17 -5 21 -13 8 -15 35 -2 35 5 0 11 -10 14 -22
4 -13 13 -32 22 -43 15 -19 16 -18 12 20 -2 22 -2 32 0 23 7 -29 23 -20 23 12
0 32 14 40 24 15 6 -16 35 -10 48 9 4 6 8 -11 9 -39 1 -27 4 -40 6 -28 5 27
38 31 51 7 5 -9 14 -14 21 -10 16 10 13 26 -5 26 -13 0 -15 9 -11 51 3 28 10
56 16 62 6 6 11 19 11 29 0 10 7 18 15 18 8 0 15 6 15 13 0 8 9 22 20 32 21
19 23 17 33 -30 3 -12 5 -7 6 13 1 25 5 32 21 32 17 0 20 -7 21 -42 l2 -43 6
45 c4 25 10 51 14 58 12 19 30 14 24 -7 -2 -11 3 -25 14 -35 14 -11 19 -12 19
-3 0 7 -5 18 -11 24 -6 6 -8 17 -3 24 5 9 10 6 15 -9 12 -31 23 -27 39 13 7
19 22 37 31 40 10 3 19 16 21 27 4 31 28 35 28 5 0 -16 -7 -28 -18 -31 -20 -7
-66 -85 -57 -95 3 -3 10 0 14 8 6 10 10 9 15 -4 3 -9 10 -13 16 -10 5 3 10 1
10 -6 0 -7 3 -10 6 -7 3 4 0 16 -6 28 -13 24 -4 43 10 20 13 -21 42 -21 47 1
5 17 7 18 17 4 10 -14 15 -10 35 27 31 55 30 55 41 38 19 -29 10 10 -11 51
-19 39 -18 70 1 39 8 -12 10 -11 11 5 l0 20 8 -20 c5 -11 7 -23 4 -28 -6 -10
19 -77 29 -77 4 0 8 11 8 24 0 13 6 26 12 28 9 3 8 9 -4 21 -9 9 -20 17 -25
17 -15 0 -14 55 1 76 18 24 26 16 33 -35 6 -44 22 -56 24 -18 0 12 3 16 6 9 7
-17 23 -5 23 18 0 10 5 22 12 26 8 5 9 2 5 -10 -13 -33 -20 -71 -12 -64 5 4
14 3 22 -3 9 -9 13 -8 13 0 0 18 18 13 23 -6 4 -17 5 -17 6 0 0 9 8 17 18 17
21 0 14 7 -12 12 -16 2 -45 44 -45 65 0 14 30 -22 31 -36 0 -9 7 7 14 34 8 33
13 42 14 25 2 -46 18 -53 19 -8 3 68 12 102 25 89 8 -8 8 -14 -1 -23 -14 -14
-16 -62 -2 -53 14 8 13 -28 -1 -42 -8 -8 -8 -13 0 -18 6 -3 13 0 15 7 2 7 6
20 9 29 3 9 1 21 -4 26 -6 6 -5 30 1 63 9 48 4 84 -7 52 -3 -6 -9 -10 -14 -6
-5 3 -9 -1 -9 -8 0 -7 -7 0 -15 16 -19 36 -19 35 5 29 16 -4 20 0 20 18 l0 24
20 -25 c11 -14 20 -20 20 -14 0 5 -4 14 -10 20 -5 5 -11 25 -12 44 -2 26 1 35
12 35 18 0 33 21 25 35 -3 6 1 13 9 16 9 3 16 12 16 20 0 8 5 14 10 14 6 0 10
6 10 14 0 16 -16 16 -43 0 -11 -6 -19 -23 -19 -42 -1 -26 -3 -30 -15 -20 -11
9 -17 9 -24 -3 -6 -10 -9 -11 -9 -1 0 7 -4 10 -10 7 -6 -3 -10 4 -11 17 0 13
-2 37 -4 55 -3 21 0 33 10 37 12 4 14 -4 10 -42 -4 -32 -3 -41 3 -27 l9 20 5
-20 c5 -16 6 -14 7 7 1 21 5 26 18 21 13 -5 15 -2 10 11 -6 16 -3 17 28 12 22
-4 35 -3 35 4 0 5 -6 9 -12 8 -8 -2 -13 7 -13 22 0 18 -5 24 -17 22 -12 -2
-16 2 -12 13 3 8 10 15 14 15 5 0 15 7 23 15 13 12 15 10 21 -16 3 -17 3 -35
0 -40 -3 -5 2 -6 10 -3 11 4 16 0 16 -15 0 -12 -4 -21 -10 -21 -13 0 -13 -37
0 -45 5 -3 7 -12 4 -20 -4 -8 -10 -13 -14 -10 -4 3 -14 -3 -21 -12 -12 -15
-12 -16 4 -10 12 5 17 1 17 -13 0 -25 11 -31 32 -16 15 11 15 16 1 60 -13 38
-14 53 -5 67 8 13 9 26 2 45 -9 24 -9 25 5 14 8 -7 15 -9 15 -4 0 5 5 1 11 -9
16 -28 29 -10 29 41 1 52 21 88 45 79 17 -7 20 -27 4 -27 -7 0 -10 -12 -7 -32
3 -18 2 -42 -2 -53 -7 -19 -8 -18 -14 5 -3 14 -7 39 -9 55 -2 17 -5 -4 -6 -46
-1 -64 2 -79 19 -94 20 -18 20 -17 20 18 0 20 5 39 11 43 7 4 9 0 5 -14 -6
-17 -3 -19 15 -15 19 5 20 3 14 -18 -12 -39 -11 -43 10 -46 11 -1 14 0 8 3
-19 8 -16 35 2 28 9 -4 15 0 15 9 0 9 3 23 6 31 4 12 2 15 -9 11 -11 -5 -13 0
-9 20 2 14 10 24 16 22 7 -2 11 -33 11 -80 1 -72 14 -123 16 -61 1 29 1 29 9
4 8 -25 8 -25 9 5 1 17 8 39 16 49 20 27 19 35 -4 29 -12 -3 -22 -16 -24 -32
-2 -14 -5 2 -6 37 -1 49 2 62 14 62 8 0 15 -7 15 -15 0 -8 -4 -15 -10 -15 -5
0 -10 -4 -10 -10 0 -17 28 -11 32 8 3 9 8 -3 12 -27 7 -36 5 -47 -8 -56 -17
-13 -23 -30 -6 -20 11 7 26 -42 16 -52 -4 -4 -23 -6 -44 -5 -36 2 -36 2 -12
-11 16 -8 26 -23 28 -40 2 -15 9 -27 15 -26 26 3 37 -2 37 -15 0 -8 5 -16 12
-18 9 -3 9 -12 -1 -37 -11 -24 -11 -35 -2 -44 8 -8 11 -4 11 19 1 40 22 68 40
51 10 -9 13 -9 17 1 7 17 33 15 33 -3 0 -8 5 -15 12 -15 6 0 4 -7 -5 -18 -10
-10 -17 -26 -17 -35 0 -9 -4 -19 -10 -22 -6 -3 -10 -13 -10 -21 0 -17 20 -19
20 -1 1 6 9 30 20 52 21 43 26 100 10 110 -5 3 -10 3 -10 -2 0 -8 -47 -33 -62
-33 -4 0 -8 9 -8 20 0 13 5 18 15 14 12 -5 13 -2 7 17 -8 20 -15 23 -55 20
-39 -2 -47 1 -47 14 0 14 3 15 14 6 11 -9 16 -9 21 -1 4 7 16 10 26 7 20 -5
26 7 9 18 -5 3 -9 25 -9 48 1 23 3 34 6 25 2 -10 9 -18 14 -18 14 0 11 8 -12
40 -20 26 -21 37 -15 104 5 55 4 76 -5 76 -7 0 -9 -10 -5 -30 3 -17 1 -30 -4
-30 -6 0 -10 8 -10 17 0 13 -3 14 -11 6 -9 -9 -7 -16 5 -29 9 -9 14 -19 11
-22 -3 -3 -14 4 -25 16 -12 12 -24 22 -28 22 -4 0 -12 12 -19 26 -14 30 -2 64
22 64 8 0 15 6 15 13 0 8 -11 12 -27 12 -16 -1 -37 3 -48 9 -37 19 -53 17 -58
-7 -2 -12 -4 4 -4 36 0 32 -3 61 -7 64 -3 3 -6 -15 -6 -40 0 -62 -14 -60 -17
2 -2 35 2 51 12 55 19 7 20 53 1 53 -8 0 -17 -13 -20 -29 -7 -37 -26 -36 -26
2 0 17 -4 30 -10 30 -5 0 -10 5 -10 11 0 8 5 7 15 -1 19 -16 30 -7 19 17 -4
10 -8 27 -8 38 -1 15 -8 20 -28 20 -18 1 -28 -4 -28 -14 0 -8 -2 -12 -5 -9 -4
3 -3 18 1 33 5 19 10 23 17 16 6 -6 21 -11 34 -11 14 0 27 -8 31 -20 7 -17 9
-17 24 11 12 20 14 29 5 27 -7 -2 -12 1 -12 7 0 5 3 9 8 8 10 -4 9 15 -2 21
-5 3 -5 25 0 48 12 61 11 78 -2 56 -9 -16 -12 -16 -44 2 -20 11 -38 19 -41 19
-18 -2 -15 13 4 18 12 3 22 12 22 20 0 10 -6 13 -15 9 -9 -3 -17 0 -19 7 -2 6
-8 28 -15 48 -8 24 -8 45 -2 62 6 16 6 28 -2 36 -6 6 -7 14 -3 18 4 4 11 1 15
-6 6 -10 10 -10 16 -2 4 7 2 18 -4 25 -6 7 -7 17 -3 21 4 5 -1 5 -11 2 -20 -7
-18 10 13 100 10 28 16 54 14 57 -2 4 2 2 8 -4 24 -20 38 -12 27 14 -8 16 -17
22 -30 19 -10 -3 -19 0 -19 6 0 10 8 12 64 15 11 1 21 8 24 16 3 8 1 12 -3 7
-5 -4 -17 0 -27 10 -14 13 -17 24 -12 52 4 20 13 41 21 46 17 13 6 75 -13 75
-24 0 -16 30 9 31 15 0 17 2 7 6 -8 3 -18 11 -22 17 -5 7 -8 4 -8 -7 0 -11 -5
-15 -11 -11 -6 3 -15 0 -20 -7 -7 -12 -9 -11 -9 2 0 8 5 20 11 26 19 19 3 42
-23 35 -12 -3 -17 -7 -10 -10 18 -6 15 -30 -5 -41 -46 -26 -46 -27 -33 -63 10
-26 10 -40 2 -54 -11 -17 -11 -17 -12 7 0 14 -8 41 -17 60 -9 19 -16 45 -15
59 2 15 -5 33 -16 43 -18 16 -20 16 -33 1 -13 -16 -15 -15 -21 12 -4 17 -5 10
-2 -18 4 -39 3 -47 -9 -42 -8 3 -17 14 -20 24 -5 19 -21 21 -44 7 -9 -6 -13
-2 -13 12 0 25 -18 37 -26 17 -3 -9 -10 -16 -15 -16 -5 0 -3 11 3 25 11 24 38
35 38 15 0 -5 7 -10 15 -10 8 0 15 5 15 10 0 6 -5 10 -11 10 -6 0 -9 7 -5 15
7 18 -5 20 -22 3 -9 -9 -15 -9 -24 0 -19 19 -26 14 -21 -15 3 -20 0 -17 -11
12 -21 54 -20 64 7 58 20 -4 21 -3 5 10 -19 15 -25 43 -8 32 6 -3 10 2 10 13
0 28 11 34 31 16 17 -16 19 -15 25 0 4 9 2 27 -4 39 l-11 22 0 -22 c-2 -52
-31 -10 -31 44 0 17 4 21 16 16 17 -6 16 8 -8 69 -10 26 -12 27 -31 13 -28
-19 -38 -19 -30 1 3 8 11 13 18 10 7 -2 16 5 19 17 6 21 7 21 21 3 13 -18 15
-18 21 -2 4 11 0 22 -11 30 -13 9 -15 15 -6 20 14 9 51 -2 51 -15 0 -6 5 -7
11 -3 6 3 15 0 20 -7 7 -11 9 -9 9 6 1 41 40 -41 49 -101 7 -48 9 -52 10 -21
1 41 21 52 21 12 0 -14 5 -25 10 -25 6 0 10 5 10 11 0 6 5 9 12 7 6 -2 21 5
32 16 19 19 21 19 24 3 4 -19 17 -22 27 -6 8 12 45 -23 45 -41 0 -7 6 -9 12
-6 7 3 21 9 31 12 9 4 17 12 17 19 0 27 74 21 91 -7 4 -6 12 -7 18 -4 14 9 15
36 1 36 -5 0 -10 16 -10 36 0 31 3 36 19 31 13 -3 21 1 24 12 3 10 5 7 6 -8 1
-24 1 -24 16 -5 12 16 14 16 15 3 0 -9 9 -24 21 -35 17 -15 23 -16 40 -6 14 9
25 9 38 2 17 -9 19 -5 23 33 4 38 -19 106 -43 127 -3 3 -9 14 -12 24 -14 37
-17 8 -5 -39 9 -32 20 -50 34 -55 16 -6 20 -15 17 -33 -4 -20 -9 -23 -31 -19
-28 5 -57 34 -68 67 -4 10 -13 25 -20 33 -8 7 -14 33 -14 56 0 27 -6 48 -15
56 -12 10 -14 24 -9 60 4 30 2 50 -5 54 -7 5 -11 -2 -11 -19 0 -21 -4 -26 -16
-21 -9 3 -18 6 -20 6 -2 0 -4 16 -4 35 0 33 -2 35 -20 25 -11 -6 -20 -7 -20
-1 0 15 52 24 61 9 6 -9 10 -8 15 5 8 22 24 22 25 0 0 -15 2 -15 9 2 5 11 9
27 9 35 0 9 -4 8 -9 -5 -7 -17 -9 -14 -9 14 -1 34 -1 34 19 16 18 -17 20 -17
14 -2 -3 9 -10 17 -14 17 -4 0 -11 20 -14 45 -7 45 9 115 27 115 4 0 6 -4 2
-9 -3 -5 0 -13 6 -17 8 -4 9 3 4 25 -4 20 -3 31 4 31 6 0 11 -12 12 -27 0 -16
3 -22 6 -15 7 19 30 14 48 -10 l15 -23 25 30 c13 17 25 39 25 50 1 18 2 18 10
-3 5 -12 7 -29 4 -37 -4 -8 -2 -15 4 -15 13 0 29 20 35 45 4 18 5 18 6 -2 0
-13 6 -23 11 -23 6 0 15 10 20 23 8 17 9 11 4 -23 -4 -33 -2 -41 5 -30 10 13
12 13 21 0 13 -20 12 -36 -2 -60 -10 -15 -9 -24 1 -44 8 -14 18 -23 23 -20 4
3 9 -7 9 -23 2 -23 2 -24 6 -5 5 23 22 31 24 10 1 -7 5 3 9 22 5 21 5 36 -1
38 -12 5 -12 42 1 42 6 0 10 -6 10 -12 0 -9 3 -9 9 1 7 11 11 4 17 -25 9 -50
14 -59 25 -43 6 10 9 7 10 -11 0 -14 3 -19 6 -12 4 9 8 10 18 2 8 -7 15 -7 19
-1 9 15 -5 42 -21 39 -19 -4 -53 53 -35 59 6 3 12 14 12 24 0 12 -4 17 -11 13
-8 -4 -9 3 -4 25 4 19 2 44 -5 60 -8 20 -8 35 0 57 l12 29 12 -30 c8 -20 15
-25 20 -17 10 17 -2 65 -14 57 -6 -4 -10 12 -10 38 0 42 -21 79 -37 64 -10
-11 -33 14 -33 35 0 10 -7 21 -15 24 -11 5 -11 9 -2 19 9 10 14 6 22 -19 10
-32 39 -43 41 -16 5 48 6 54 11 43 3 -10 8 -9 20 3 9 8 22 13 29 10 8 -3 14 0
14 7 1 16 29 -34 30 -51 0 -8 -6 -12 -12 -9 -7 2 -12 11 -12 20 2 22 -37 12
-58 -15 -19 -25 -19 -39 0 -46 7 -2 12 5 12 15 0 10 8 27 16 38 15 19 16 18
10 -17 -4 -20 -2 -39 3 -42 5 -3 7 3 4 13 -4 15 1 20 24 23 29 3 31 8 19 73
-5 25 -2 22 16 -15 19 -38 23 -42 26 -22 2 12 6 22 10 22 11 -1 44 -28 40 -33
-2 -3 10 -15 25 -28 24 -18 31 -20 38 -8 12 18 4 92 -10 97 -15 5 -14 65 2 82
10 12 9 12 -5 1 -10 -7 -19 -28 -19 -45 -1 -17 -3 -23 -6 -13 -7 26 -23 20
-23 -9 0 -16 -5 -24 -12 -21 -15 4 -11 45 5 65 16 20 -7 39 -28 22 -12 -10
-15 -10 -15 4 0 10 -3 15 -7 13 -5 -3 -9 11 -11 30 -3 43 -29 68 -51 50 -12
-10 -13 -9 -7 8 11 24 8 77 -3 88 -5 5 -7 -6 -5 -25 l4 -33 -21 35 c-12 19
-22 51 -23 70 -1 30 2 35 22 34 12 0 22 3 22 8 0 4 5 8 10 8 6 0 10 -7 10 -15
0 -8 9 -15 20 -15 11 0 20 -7 20 -15 0 -10 10 -15 28 -15 16 0 37 -9 47 -20
10 -11 20 -18 23 -15 8 8 34 -34 27 -45 -3 -6 -1 -10 4 -10 6 0 11 -17 12 -37
0 -31 2 -34 9 -18 6 14 9 16 10 5 1 -8 5 -4 9 9 l7 25 20 -22 c17 -18 26 -21
45 -14 36 14 43 13 56 -11 11 -20 12 -18 13 21 0 23 5 42 10 42 6 0 10 4 10
10 0 5 -7 7 -15 4 -11 -4 -15 1 -15 17 0 13 -5 31 -10 39 -8 12 -10 11 -10 -7
0 -20 -5 -18 -47 22 -40 37 -45 47 -33 55 22 14 26 13 56 -15 15 -14 30 -25
35 -25 4 0 11 -9 14 -20 3 -11 13 -20 21 -20 8 0 13 -4 10 -8 -2 -4 -1 -14 4
-22 7 -12 10 -12 16 3 8 21 24 12 24 -14 0 -10 6 -19 14 -19 8 0 17 -7 20 -16
3 -8 10 -13 15 -10 4 3 25 -10 45 -30 20 -19 36 -31 36 -27 1 19 20 -24 21
-47 1 -23 2 -22 8 5 l7 30 8 -35 7 -35 13 30 c15 36 29 20 32 -39 1 -21 8 -42
16 -47 21 -14 48 -10 48 7 0 8 7 22 15 30 8 9 15 23 14 32 0 14 -2 13 -9 -3
-9 -20 -9 -20 -9 0 -1 12 -5 25 -11 31 -6 6 -6 15 0 24 5 8 10 10 10 4 0 -7 9
-14 19 -17 13 -3 25 -22 35 -53 8 -27 15 -43 15 -36 1 15 21 16 21 1 0 -18 51
-61 66 -55 7 3 19 -3 26 -12 7 -9 22 -17 33 -17 11 0 35 -15 52 -35 19 -20 33
-29 33 -21 0 9 14 0 33 -21 17 -19 42 -38 54 -42 13 -4 26 -19 29 -32 5 -21
11 -24 30 -20 13 4 24 2 24 -3 0 -5 -9 -11 -20 -14 -14 -4 -18 -10 -13 -22 6
-16 7 -16 18 -2 10 14 13 13 33 -2 20 -15 22 -21 13 -45 -14 -34 -14 -49 -1
-41 11 7 70 -53 70 -71 0 -8 4 -14 9 -14 13 0 22 28 11 35 -6 4 -10 11 -10 17
0 7 6 6 15 -2 12 -10 15 -10 16 1 2 36 18 -33 18 -79 1 -40 -2 -51 -11 -46 -7
4 -4 -3 7 -15 11 -13 19 -26 19 -30 -1 -3 11 -35 27 -70 16 -35 29 -67 29 -71
0 -4 6 -20 14 -36 8 -16 19 -41 25 -56 6 -16 15 -28 21 -28 5 0 10 -10 10 -23
0 -13 5 -28 12 -35 6 -6 11 -34 10 -61 0 -34 4 -54 15 -62 21 -18 35 -56 39
-109 1 -25 6 -58 9 -75 4 -16 6 -51 6 -77 -1 -28 4 -48 10 -48 5 0 7 -4 4 -10
-3 -5 -1 -10 4 -10 8 0 11 185 11 601 -1 514 -3 603 -15 616 -19 19 -19 53 0
53 13 0 15 57 15 450 l0 450 -4140 0 -4140 0 0 -4140z m5859 3938 c7 -18 15
-27 18 -20 7 18 23 15 23 -5 0 -15 2 -15 9 -4 8 12 12 13 25 1 11 -9 16 -27
15 -59 -1 -25 4 -59 11 -76 14 -35 0 -85 -25 -85 -11 0 -15 11 -15 38 0 43
-14 62 -47 62 -15 0 -23 6 -23 16 0 13 3 14 14 5 10 -9 16 -9 21 -1 4 7 -2 14
-14 17 -12 3 -21 13 -21 24 0 10 -4 20 -9 24 -10 5 -10 95 -1 95 3 0 11 -15
19 -32z m1331 -68 c0 -5 -2 -10 -4 -10 -3 0 -8 5 -11 10 -3 6 -1 10 4 10 6 0
11 -4 11 -10z m-1283 -152 c-3 -8 -6 -5 -6 6 -1 11 2 17 5 13 3 -3 4 -12 1
-19z m1352 -19 c-20 -12 -26 -11 -33 6 -8 21 26 38 38 18 5 -10 4 -18 -5 -24z
m137 10 c20 2 44 -11 44 -23 0 -8 7 -19 15 -26 23 -19 18 -38 -10 -36 -14 0
-25 7 -25 14 0 6 -4 12 -10 12 -5 0 -10 8 -11 18 0 14 -2 14 -9 -3 -8 -19 -9
-18 -9 4 -1 13 -4 22 -7 18 -6 -6 -34 16 -34 27 0 9 35 12 41 3 3 -5 10 -8 15
-8z m-1509 -21 c-3 -7 -5 -2 -5 12 0 14 2 19 5 13 2 -7 2 -19 0 -25z m668 2
c3 -5 1 -10 -4 -10 -6 0 -11 5 -11 10 0 6 2 10 4 10 3 0 8 -4 11 -10z m35 -27
c0 -22 -2 -25 -10 -13 -13 20 -13 40 0 40 6 0 10 -12 10 -27z m875 -119 c28
-26 28 -26 4 -19 -23 7 -39 22 -39 38 0 11 5 9 35 -19z m72 -56 c-3 -8 -6 -5
-6 6 -1 11 2 17 5 13 3 -3 4 -12 1 -19z m342 -41 c12 -15 12 -17 -3 -11 -9 3
-16 13 -16 22 0 8 1 13 3 11 1 -2 9 -12 16 -22z m-539 -38 c0 -17 -4 -28 -10
-24 -5 3 -10 17 -10 31 0 13 5 24 10 24 6 0 10 -14 10 -31z m720 -94 c0 -8 -4
-15 -10 -15 -5 0 -10 7 -10 15 0 8 5 15 10 15 6 0 10 -7 10 -15z m-1250 -30
c0 -14 -4 -25 -10 -25 -5 0 -10 11 -10 25 0 14 5 25 10 25 6 0 10 -11 10 -25z
m-240 -15 c0 -5 -2 -10 -4 -10 -3 0 -8 5 -11 10 -3 6 -1 10 4 10 6 0 11 -4 11
-10z m1400 -11 c0 -6 -4 -7 -10 -4 -5 3 -10 11 -10 16 0 6 5 7 10 4 6 -3 10
-11 10 -16z m-263 -21 c-3 -8 -6 -5 -6 6 -1 11 2 17 5 13 3 -3 4 -12 1 -19z
m270 -20 c-3 -8 -6 -5 -6 6 -1 11 2 17 5 13 3 -3 4 -12 1 -19z m-1740 -220
c-3 -8 -6 -5 -6 6 -1 11 2 17 5 13 3 -3 4 -12 1 -19z m-190 -94 c28 -26 43
-23 43 7 0 11 4 18 9 15 5 -4 12 0 14 6 3 7 6 -6 6 -29 1 -23 -3 -45 -9 -48
-5 -3 -7 0 -4 9 4 10 0 14 -13 12 -20 -3 -32 -36 -13 -36 14 0 3 -41 -14 -52
-20 -13 -25 -9 -35 30 -9 38 -23 162 -14 128 3 -10 16 -29 30 -42z m1988 37
c3 -5 1 -12 -4 -15 -5 -3 -11 1 -15 9 -6 16 9 21 19 6z m15 -31 c0 -5 -5 -10
-11 -10 -5 0 -7 5 -4 10 3 6 8 10 11 10 2 0 4 -4 4 -10z m127 -82 c-3 -7 -5
-2 -5 12 0 14 2 19 5 13 2 -7 2 -19 0 -25z m-2047 3 c0 -6 -4 -13 -10 -16 -5
-3 -10 1 -10 9 0 9 5 16 10 16 6 0 10 -4 10 -9z m30 -26 c0 -8 -4 -15 -10 -15
-5 0 -7 7 -4 15 4 8 8 15 10 15 2 0 4 -7 4 -15z m-1023 -17 c-3 -8 -6 -5 -6 6
-1 11 2 17 5 13 3 -3 4 -12 1 -19z m3073 -21 c0 -5 -4 -5 -10 -2 -5 3 -10 14
-10 23 0 15 2 15 10 2 5 -8 10 -19 10 -23z m-3320 -12 c0 -8 -4 -15 -10 -15
-5 0 -10 7 -10 15 0 8 5 15 10 15 6 0 10 -7 10 -15z m220 -16 c0 -5 -4 -9 -10
-9 -5 0 -10 7 -10 16 0 8 5 12 10 9 6 -3 10 -10 10 -16z m3011 -50 c13 -25 0
-49 -13 -25 -5 9 -13 14 -19 11 -5 -4 -9 5 -9 19 0 29 24 26 41 -5z m-3234
-71 c-3 -8 -6 -5 -6 6 -1 11 2 17 5 13 3 -3 4 -12 1 -19z m743 -133 c0 -2 -7
-5 -15 -9 -9 -3 -15 0 -15 9 0 9 6 12 15 9 8 -4 15 -7 15 -9z m50 -32 c0 -7
-4 -13 -9 -13 -10 0 -21 24 -21 48 0 13 3 12 15 -4 8 -10 15 -25 15 -31z
m2563 4 c-4 -6 -10 -2 -14 9 -12 31 -9 40 6 20 8 -10 11 -24 8 -29z m-2670
-52 c-22 -29 -27 -26 -13 9 5 15 14 24 20 21 6 -4 3 -15 -7 -30z m408 3 c34
-38 35 -46 12 -64 -29 -21 -34 -16 -27 24 4 20 3 34 -1 30 -12 -11 -35 11 -28
28 7 20 10 18 44 -18z m-81 -29 c0 -5 5 -7 10 -4 6 3 10 -1 10 -9 0 -9 5 -16
10 -16 6 0 10 -7 10 -15 0 -8 -4 -15 -10 -15 -5 0 -11 -10 -11 -22 l-2 -23 -4
23 c-2 12 -13 27 -24 32 -26 15 -25 60 3 60 4 0 8 -5 8 -11z m-623 -21 c-3 -8
-6 -5 -6 6 -1 11 2 17 5 13 3 -3 4 -12 1 -19z m73 3 c0 -11 -4 -23 -10 -26 -6
-4 -10 5 -10 19 0 14 5 26 10 26 6 0 10 -9 10 -19z m66 -59 c-3 -3 -16 -6 -29
-7 -12 -2 -21 -8 -19 -15 2 -7 0 -20 -3 -29 -5 -13 -7 -13 -15 -1 -11 18 19
72 36 66 7 -3 16 7 20 22 l8 27 4 -28 c2 -16 1 -31 -2 -35z m834 8 c0 -5 -5
-10 -11 -10 -5 0 -7 5 -4 10 3 6 8 10 11 10 2 0 4 -4 4 -10z m-929 -27 c-8
-15 -10 -15 -11 -2 0 17 10 32 18 25 2 -3 -1 -13 -7 -23z m109 -2 c0 -5 -7
-11 -15 -15 -9 -3 -15 0 -15 9 0 8 7 15 15 15 8 0 15 -4 15 -9z m190 -24 c0
-5 -4 -5 -10 -2 -5 3 -10 14 -10 23 0 15 2 15 10 2 5 -8 10 -19 10 -23z
m-3723 -9 c-3 -8 -6 -5 -6 6 -1 11 2 17 5 13 3 -3 4 -12 1 -19z m-200 -23
c-10 -21 -13 -22 -19 -7 -10 26 -9 39 2 22 8 -13 10 -12 10 3 0 10 4 16 9 13
5 -4 4 -16 -2 -31z m263 25 c0 -5 -9 -10 -20 -10 -11 0 -20 5 -20 10 0 6 9 10
20 10 11 0 20 -4 20 -10z m3637 -42 c-3 -7 -5 -2 -5 12 0 14 2 19 5 13 2 -7 2
-19 0 -25z m-287 -28 c0 -5 -5 -10 -11 -10 -5 0 -7 5 -4 10 3 6 8 10 11 10 2
0 4 -4 4 -10z m303 -37 c-7 -3 -13 -12 -13 -20 0 -9 -2 -14 -5 -11 -4 3 -3 18
1 33 5 20 9 24 18 14 8 -8 8 -13 -1 -16z m-206 -5 c-3 -8 -6 -5 -6 6 -1 11 2
17 5 13 3 -3 4 -12 1 -19z m43 1 c0 -5 -4 -9 -10 -9 -5 0 -10 7 -10 16 0 8 5
12 10 9 6 -3 10 -10 10 -16z m-80 -34 c0 -8 -4 -15 -10 -15 -5 0 -10 7 -10 15
0 8 5 15 10 15 6 0 10 -7 10 -15z m27 -17 c-3 -8 -6 -5 -6 6 -1 11 2 17 5 13
3 -3 4 -12 1 -19z m120 0 c-3 -8 -6 -5 -6 6 -1 11 2 17 5 13 3 -3 4 -12 1 -19z
m63 -2 c0 -3 -4 -8 -10 -11 -5 -3 -10 -1 -10 4 0 6 5 11 10 11 6 0 10 -2 10
-4z m-197 -41 c-7 -21 -13 -19 -13 6 0 11 4 18 10 14 5 -3 7 -12 3 -20z m94
-47 c-2 -13 -4 -3 -4 22 0 25 2 35 4 23 2 -13 2 -33 0 -45z m93 37 c0 -14 -4
-25 -10 -25 -5 0 -10 11 -10 25 0 14 5 25 10 25 6 0 10 -11 10 -25z m-3030
-34 c11 -22 0 -34 -24 -25 -20 8 -21 44 -1 44 8 0 19 -9 25 -19z m866 -90 c2
-38 0 -41 -20 -35 -35 11 -47 40 -21 50 8 4 15 13 15 21 0 8 6 13 13 11 7 -3
13 -23 13 -47z m66 15 c-2 -9 1 -16 5 -15 28 5 53 -3 53 -17 0 -14 2 -14 22 0
30 21 38 20 38 -4 0 -11 5 -20 11 -20 6 0 9 9 6 20 -3 10 1 24 8 30 10 8 18 4
34 -16 12 -15 21 -21 21 -13 0 12 2 12 9 0 5 -8 16 -11 29 -7 31 10 92 -4 92
-20 0 -8 -10 -14 -24 -14 -30 0 -43 -36 -15 -43 24 -6 25 -37 2 -38 -86 -7
-94 -3 -86 45 5 29 3 31 -29 31 -18 0 -36 -4 -39 -8 -3 -5 -21 0 -38 11 -27
16 -37 18 -62 9 -16 -6 -29 -15 -29 -19 0 -4 -5 -8 -11 -8 -6 0 -9 9 -6 20 6
22 -8 28 -16 8 -8 -23 -15 -4 -10 24 3 15 9 25 14 22 5 -3 9 -1 9 5 0 5 -5 13
-10 16 -13 8 -2 27 13 22 7 -2 11 -12 9 -21z m2309 -49 c-13 -13 -15 1 -4 30
7 17 8 17 11 -1 2 -10 -1 -23 -7 -29z m-1941 3 c0 -5 -7 -10 -16 -10 -8 0 -12
5 -9 10 3 6 10 10 16 10 5 0 9 -4 9 -10z m37 -56 c-3 -4 -14 -3 -24 0 -15 6
-15 8 -3 16 16 10 39 -4 27 -16z m-301 -20 c9 -34 -3 -42 -49 -37 -27 4 -41
12 -47 27 -11 29 -7 32 44 34 41 2 46 0 52 -24z m244 6 c0 -5 6 -10 14 -10 8
0 18 -5 22 -12 5 -8 2 -9 -9 -5 -9 3 -19 1 -23 -5 -4 -7 -9 -6 -15 3 -12 19
-11 39 1 39 6 0 10 -4 10 -10z m-223 -32 c-3 -7 -5 -2 -5 12 0 14 2 19 5 13 2
-7 2 -19 0 -25z m43 16 c0 -9 -5 -14 -12 -12 -18 6 -21 28 -4 28 9 0 16 -7 16
-16z m2327 -16 c-3 -7 -5 -2 -5 12 0 14 2 19 5 13 2 -7 2 -19 0 -25z m-2907
-18 c-19 -12 -35 3 -26 26 6 17 8 17 24 0 15 -15 15 -18 2 -26z m2710 -1 c0
-5 -7 -9 -15 -9 -15 0 -20 12 -9 23 8 8 24 -1 24 -14z m40 -9 c0 -16 -4 -30
-10 -30 -11 0 -14 43 -3 53 11 12 13 8 13 -23z m-2840 -10 c0 -5 -5 -10 -11
-10 -5 0 -7 5 -4 10 3 6 8 10 11 10 2 0 4 -4 4 -10z m2967 -27 c-3 -10 -5 -4
-5 12 0 17 2 24 5 18 2 -7 2 -21 0 -30z m-35 -45 c-5 -21 -7 -20 -13 12 -4 19
-5 39 -2 44 10 15 22 -30 15 -56z m-35 20 c-3 -8 -6 -5 -6 6 -1 11 2 17 5 13
3 -3 4 -12 1 -19z m-127 2 c0 -5 -2 -10 -4 -10 -3 0 -8 5 -11 10 -3 6 -1 10 4
10 6 0 11 -4 11 -10z m-4330 -120 c0 -11 -2 -20 -4 -20 -2 0 -6 9 -9 20 -3 11
-1 20 4 20 5 0 9 -9 9 -20z m4507 -12 c-3 -7 -5 -2 -5 12 0 14 2 19 5 13 2 -7
2 -19 0 -25z m-287 -22 c0 -8 -4 -18 -10 -21 -5 -3 -10 3 -10 14 0 12 5 21 10
21 6 0 10 -6 10 -14z m264 -61 c-4 -17 -10 -23 -16 -17 -6 6 -5 17 3 30 7 12
15 20 17 18 1 -2 0 -16 -4 -31z m-43 -42 c-8 -15 -10 -15 -11 -2 0 17 10 32
18 25 2 -3 -1 -13 -7 -23z m-84 -45 c-3 -8 -6 -5 -6 6 -1 11 2 17 5 13 3 -3 4
-12 1 -19z m89 -1 c8 3 14 1 14 -5 0 -11 -49 -26 -57 -18 -3 3 -3 13 1 22 5
13 10 14 18 6 6 -6 17 -8 24 -5z m-35 -64 c25 -7 19 -28 -8 -28 -24 0 -53 -22
-53 -41 0 -8 -3 -14 -7 -14 -5 0 -8 17 -9 38 -1 20 1 29 3 20 6 -22 19 -23 27
-2 10 26 7 36 -10 30 -10 -4 -14 -1 -11 6 2 7 12 12 21 12 11 -1 17 7 18 25 1
21 2 19 5 -8 3 -23 11 -35 24 -38z m-94 25 c-3 -7 -5 -2 -5 12 0 14 2 19 5 13
2 -7 2 -19 0 -25z m163 -8 c0 -5 -4 -10 -10 -10 -5 0 -10 5 -10 10 0 6 5 10
10 10 6 0 10 -4 10 -10z m-34 -67 c-10 -10 -19 5 -10 18 6 11 8 11 12 0 2 -7
1 -15 -2 -18z m-1919 -85 c-3 -7 -5 -2 -5 12 0 14 2 19 5 13 2 -7 2 -19 0 -25z
m-27 -18 c0 -13 -1 -13 -10 0 -5 8 -10 22 -10 30 0 13 1 13 10 0 5 -8 10 -22
10 -30z m1947 -32 c-3 -8 -6 -5 -6 6 -1 11 2 17 5 13 3 -3 4 -12 1 -19z m88
-28 c3 -5 1 -10 -4 -10 -6 0 -11 5 -11 10 0 6 2 10 4 10 3 0 8 -4 11 -10z
m-1465 -10 c0 -5 -5 -10 -11 -10 -5 0 -7 5 -4 10 3 6 8 10 11 10 2 0 4 -4 4
-10z m-335 -29 c3 -5 1 -12 -5 -16 -5 -3 -10 1 -10 9 0 18 6 21 15 7z m1762
-13 c-3 -8 -6 -5 -6 6 -1 11 2 17 5 13 3 -3 4 -12 1 -19z m-1777 -28 c0 -5 -5
-10 -11 -10 -5 0 -7 5 -4 10 3 6 8 10 11 10 2 0 4 -4 4 -10z m1763 -22 c-3
-15 -9 -25 -14 -23 -4 3 -3 17 3 30 14 31 18 28 11 -7z m-2055 -50 c-4 -29 16
-34 30 -6 l11 23 0 -25 c1 -20 -7 -29 -36 -43 -39 -17 -55 -15 -35 5 7 7 12
22 12 33 0 20 8 35 17 35 2 0 3 -10 1 -22z m142 0 c0 -13 -4 -29 -9 -37 -6
-10 -9 -2 -8 22 1 39 17 53 17 15z m1877 0 c-3 -8 -6 -5 -6 6 -1 11 2 17 5 13
3 -3 4 -12 1 -19z m-1227 -58 c0 -5 -4 -10 -10 -10 -5 0 -10 5 -10 10 0 6 5
10 10 10 6 0 10 -4 10 -10z m-43 -16 c-3 -3 -12 -4 -19 -1 -8 3 -5 6 6 6 11 1
17 -2 13 -5z m-732 -24 c-3 -5 -12 -7 -20 -3 -21 7 -19 13 6 13 11 0 18 -4 14
-10z m159 -6 c9 -22 -3 -32 -14 -14 -12 19 -12 30 -1 30 5 0 12 -7 15 -16z
m-249 -5 c11 -17 -1 -21 -15 -4 -8 9 -8 15 -2 15 6 0 14 -5 17 -11z m55 -9 c0
-5 -2 -10 -4 -10 -3 0 -8 5 -11 10 -3 6 -1 10 4 10 6 0 11 -4 11 -10z m-133
-52 c-3 -7 -5 -2 -5 12 0 14 2 19 5 13 2 -7 2 -19 0 -25z m2280 -10 c-3 -8 -6
-5 -6 6 -1 11 2 17 5 13 3 -3 4 -12 1 -19z m-37 -13 c0 -21 -4 -25 -27 -24
-24 2 -25 2 -5 6 14 3 22 12 22 24 0 10 2 19 5 19 3 0 5 -11 5 -25z m-144 -12
c-10 -10 -19 5 -10 18 6 11 8 11 12 0 2 -7 1 -15 -2 -18z m41 -5 c-3 -8 -6 -5
-6 6 -1 11 2 17 5 13 3 -3 4 -12 1 -19z m-1177 2 c0 -5 -4 -10 -10 -10 -5 0
-10 5 -10 10 0 6 5 10 10 10 6 0 10 -4 10 -10z m1120 -22 c0 -12 -28 3 -34 18
-4 11 -2 12 14 1 11 -6 20 -15 20 -19z m-60 7 c0 -8 -4 -15 -10 -15 -5 0 -10
7 -10 15 0 8 5 15 10 15 6 0 10 -7 10 -15z m90 -23 c-10 -4 -10 -6 1 -12 10
-7 10 -14 1 -35 -7 -14 -12 -39 -12 -54 0 -16 -9 -36 -22 -47 -21 -19 -21 -19
-14 6 4 14 8 34 10 45 12 81 36 141 44 115 3 -7 -1 -16 -8 -18z m-1417 3 c-3
-9 -8 -14 -10 -11 -3 3 -2 9 2 15 9 16 15 13 8 -4z m-713 -5 c0 -5 -4 -10 -10
-10 -5 0 -10 5 -10 10 0 6 5 10 10 10 6 0 10 -4 10 -10z m1876 -31 c-3 -17 -1
-39 4 -50 7 -12 7 -19 1 -19 -5 0 -13 14 -16 31 -5 23 -9 28 -16 18 -5 -8 -9
-9 -9 -4 0 11 31 55 39 55 2 0 1 -14 -3 -31z m371 -18 c0 -39 0 -40 -4 -11 -5
30 -7 32 -13 15 -7 -17 -9 -15 -9 11 -1 19 4 31 12 31 9 0 14 -15 14 -46z
m123 2 l-22 -28 7 25 c10 33 28 56 33 41 2 -6 -6 -23 -18 -38z m-300 -35 c0
-39 -3 -69 -6 -65 -9 9 -11 137 -2 137 4 0 8 -32 8 -72z m120 33 c-9 -18 -40
-30 -40 -17 0 15 14 35 21 30 5 -3 12 3 16 12 4 10 8 13 10 7 3 -7 -1 -21 -7
-32z m-170 9 c0 -5 -2 -10 -4 -10 -3 0 -8 5 -11 10 -3 6 -1 10 4 10 6 0 11 -4
11 -10z m400 -8 c0 -10 -6 -24 -12 -31 -11 -11 -10 -13 5 -8 10 4 17 2 17 -5
0 -14 -30 -48 -42 -48 -12 0 -10 55 4 85 13 29 28 33 28 7z m-1283 -34 c-3 -7
-5 -2 -5 12 0 14 2 19 5 13 2 -7 2 -19 0 -25z m1102 -48 c1 -13 0 -13 -9 0 -5
8 -9 26 -9 40 l1 25 8 -25 c4 -14 8 -32 9 -40z m-1299 29 c0 -6 -4 -7 -10 -4
-5 3 -10 11 -10 16 0 6 5 7 10 4 6 -3 10 -11 10 -16z m989 -63 c2 16 27 13 38
-6 8 -11 7 -21 -4 -35 -12 -17 -15 -18 -23 -5 -5 8 -15 15 -21 15 -7 0 -13 10
-14 23 -1 12 -6 27 -12 33 -7 7 -7 18 1 34 10 23 12 22 22 -23 7 -26 12 -42
13 -36z m-1962 22 c-2 -13 -4 -5 -4 17 -1 22 1 32 4 23 2 -10 2 -28 0 -40z
m1010 20 c-3 -7 -5 -2 -5 12 0 14 2 19 5 13 2 -7 2 -19 0 -25z m860 10 c-3 -8
-6 -5 -6 6 -1 11 2 17 5 13 3 -3 4 -12 1 -19z m147 13 c3 -4 0 -16 -7 -25 -11
-14 -12 -13 -12 9 0 25 9 33 19 16z m226 -33 c0 -10 -4 -18 -10 -18 -5 0 -10
15 -10 33 0 24 3 28 10 17 5 -8 10 -23 10 -32z m150 24 c0 -13 -12 -22 -22
-16 -10 6 -1 24 13 24 5 0 9 -4 9 -8z m-1303 -34 c-3 -8 -6 -5 -6 6 -1 11 2
17 5 13 3 -3 4 -12 1 -19z m-117 2 c0 -5 -5 -10 -11 -10 -5 0 -7 5 -4 10 3 6
8 10 11 10 2 0 4 -4 4 -10z m-3473 -35 c-13 -13 -16 -13 -21 2 -4 9 -4 18 -1
21 3 3 5 -1 5 -9 1 -9 5 -7 12 6 7 12 13 15 16 7 2 -6 -3 -18 -11 -27z m4233
19 c0 -8 -5 -12 -10 -9 -6 4 -8 11 -5 16 9 14 15 11 15 -7z m167 -30 c1 -37 1
-37 -7 -9 -4 17 -8 26 -9 20 -1 -5 -5 -3 -10 5 -11 17 -4 33 12 27 7 -2 13
-21 14 -43z m-4347 26 c0 -5 -4 -10 -10 -10 -5 0 -10 5 -10 10 0 6 5 10 10 10
6 0 10 -4 10 -10z m5019 -138 c1 -31 -3 -42 -11 -40 -9 3 -14 31 -15 84 -1 78
-1 79 12 39 7 -22 14 -59 14 -83z m-4999 47 c0 -11 -4 -17 -10 -14 -5 3 -10
15 -10 26 0 11 5 17 10 14 6 -3 10 -15 10 -26z m4306 -17 c-11 -10 -15 4 -8
28 l7 25 3 -23 c2 -13 1 -26 -2 -30z m249 38 c3 -5 1 -10 -4 -10 -6 0 -11 5
-11 10 0 6 2 10 4 10 3 0 8 -4 11 -10z m-68 -22 c-3 -8 -6 -5 -6 6 -1 11 2 17
5 13 3 -3 4 -12 1 -19z m-120 -20 c-3 -8 -6 -5 -6 6 -1 11 2 17 5 13 3 -3 4
-12 1 -19z m102 -18 c3 0 7 -9 7 -19 0 -11 -5 -19 -11 -18 -16 3 -24 32 -17
59 l7 23 3 -22 c2 -13 7 -23 11 -23z m-44 20 c3 -5 1 -10 -4 -10 -6 0 -11 5
-11 10 0 6 2 10 4 10 3 0 8 -4 11 -10z m5 -45 c0 -8 -4 -15 -10 -15 -5 0 -10
7 -10 15 0 8 5 15 10 15 6 0 10 -7 10 -15z m-193 -17 c-3 -8 -6 -5 -6 6 -1 11
2 17 5 13 3 -3 4 -12 1 -19z m78 12 c3 -5 1 -10 -4 -10 -6 0 -11 5 -11 10 0 6
2 10 4 10 3 0 8 -4 11 -10z m365 -11 c0 -11 -4 -17 -10 -14 -5 3 -10 13 -10
21 0 8 5 14 10 14 6 0 10 -9 10 -21z m-4660 -14 c0 -25 -18 -25 -22 -1 -4 17
-1 23 9 19 7 -3 13 -11 13 -18z m4377 -7 c-3 -7 -5 -2 -5 12 0 14 2 19 5 13 2
-7 2 -19 0 -25z m-857 7 c0 -8 -4 -15 -10 -15 -5 0 -10 7 -10 15 0 8 5 15 10
15 6 0 10 -7 10 -15z m791 -18 c-8 -8 -11 -7 -11 4 0 20 13 34 18 19 3 -7 -1
-17 -7 -23z m141 1 c12 -20 10 -28 -7 -22 -8 4 -15 10 -15 15 0 5 -4 9 -10 9
-5 0 -10 -7 -10 -15 0 -8 -4 -15 -10 -15 -11 0 -14 33 -4 43 9 9 47 -1 56 -15z
m48 -20 c0 -10 5 -18 10 -18 6 0 10 -4 10 -10 0 -11 -57 -7 -68 5 -4 4 2 5 13
3 17 -3 20 2 17 32 -2 26 0 31 7 20 6 -8 11 -23 11 -32z m-159 5 c-8 -15 -10
-15 -11 -2 0 17 10 32 18 25 2 -3 -1 -13 -7 -23z m-95 3 c20 -21 17 -28 -6
-14 -11 7 -20 16 -20 20 0 12 10 9 26 -6z m-514 -28 c-8 -8 -9 -4 -5 13 4 13
8 18 11 10 2 -7 -1 -18 -6 -23z m635 0 c-3 -8 -6 -5 -6 6 -1 11 2 17 5 13 3
-3 4 -12 1 -19z m66 -58 c-14 -14 -15 -13 -9 10 3 14 6 34 7 45 0 14 3 11 10
-10 6 -23 5 -33 -8 -45z m557 51 c0 -5 3 -18 7 -28 6 -16 5 -16 -10 -4 -19 15
-23 41 -7 41 6 0 10 -4 10 -9z m-750 -17 c0 -8 -4 -12 -10 -9 -5 3 -10 10 -10
16 0 5 5 9 10 9 6 0 10 -7 10 -16z m17 -6 c-3 -8 -6 -5 -6 6 -1 11 2 17 5 13
3 -3 4 -12 1 -19z m131 -13 c0 -14 -4 -28 -9 -31 -5 -3 -9 9 -9 25 0 17 4 31
9 31 5 0 9 -11 9 -25z m79 -7 c-3 -8 -6 -5 -6 6 -1 11 2 17 5 13 3 -3 4 -12 1
-19z m-210 -20 c-3 -8 -6 -5 -6 6 -1 11 2 17 5 13 3 -3 4 -12 1 -19z m-85 -40
c-9 -9 -12 -7 -12 12 0 19 3 21 12 12 9 -9 9 -15 0 -24z m281 7 c-3 -8 -9 -15
-14 -15 -10 0 -12 24 -3 33 11 11 24 -3 17 -18z m-716 -7 c-3 -8 -6 -5 -6 6
-1 11 2 17 5 13 3 -3 4 -12 1 -19z m120 -40 c-3 -8 -6 -5 -6 6 -1 11 2 17 5
13 3 -3 4 -12 1 -19z m400 0 c-3 -8 -6 -5 -6 6 -1 11 2 17 5 13 3 -3 4 -12 1
-19z m-547 -4 c0 -8 -4 -12 -10 -9 -5 3 -10 10 -10 16 0 5 5 9 10 9 6 0 10 -7
10 -16z m120 1 c0 -8 -4 -15 -10 -15 -5 0 -10 7 -10 15 0 8 5 15 10 15 6 0 10
-7 10 -15z m624 -40 c-10 -25 -29 -11 -32 24 l-3 32 20 -20 c12 -12 18 -27 15
-36z m40 40 c-4 -8 -8 -15 -10 -15 -2 0 -4 7 -4 15 0 8 4 15 10 15 5 0 7 -7 4
-15z m-147 -67 c-2 -13 -4 -5 -4 17 -1 22 1 32 4 23 2 -10 2 -28 0 -40z m-617
22 c0 -5 -5 -10 -11 -10 -5 0 -7 5 -4 10 3 6 8 10 11 10 2 0 4 -4 4 -10z m239
-75 c-1 -17 -2 -16 -9 5 -4 14 -8 19 -9 12 -2 -24 -19 -3 -23 30 l-5 32 23
-30 c13 -16 23 -38 23 -49z m158 13 c-3 -7 -5 -2 -5 12 0 14 2 19 5 13 2 -7 2
-19 0 -25z m33 16 c0 -8 -5 -12 -10 -9 -6 4 -8 11 -5 16 9 14 15 11 15 -7z
m-110 -4 c0 -5 -5 -10 -11 -10 -5 0 -7 5 -4 10 3 6 8 10 11 10 2 0 4 -4 4 -10z
m-456 -25 c-4 -8 -8 -15 -10 -15 -2 0 -4 7 -4 15 0 8 4 15 10 15 5 0 7 -7 4
-15z m512 -33 c-12 -11 -18 7 -10 30 l8 23 4 -23 c2 -13 1 -26 -2 -30z m-433
8 c-7 -28 -13 -25 -13 6 0 14 4 23 9 20 5 -3 7 -15 4 -26z m177 12 c0 -10 6
-24 13 -31 10 -11 9 -13 -6 -7 -10 3 -21 6 -23 6 -2 0 -4 11 -4 25 0 14 5 25
10 25 6 0 10 -8 10 -18z m92 -18 c-2 -10 -3 -27 -3 -36 0 -14 -3 -15 -14 -5
-8 8 -9 14 -2 18 5 4 7 17 4 29 -3 14 -1 20 6 17 7 -2 11 -13 9 -23z m115 -6
c-3 -8 -6 -5 -6 6 -1 11 2 17 5 13 3 -3 4 -12 1 -19z m-404 -35 c-5 -12 -7
-12 -14 -1 -5 7 -9 19 -9 27 0 11 3 11 14 1 8 -6 12 -18 9 -27z m397 2 c0 -8
-4 -15 -10 -15 -5 0 -10 7 -10 15 0 8 5 15 10 15 6 0 10 -7 10 -15z m190 5 c0
-5 -2 -10 -4 -10 -3 0 -8 5 -11 10 -3 6 -1 10 4 10 6 0 11 -4 11 -10z m-410
-8 c0 -15 -11 -21 -27 -15 -12 5 -12 7 -1 14 17 11 28 11 28 1z m152 -54 c5
-11 0 -18 -13 -21 -17 -5 -19 0 -19 41 0 45 1 46 13 22 7 -14 16 -32 19 -42z
m188 42 c0 -5 -4 -10 -10 -10 -5 0 -10 5 -10 10 0 6 5 10 10 10 6 0 10 -4 10
-10z m50 -6 c0 -9 -5 -12 -11 -8 -9 5 -10 -1 -5 -20 4 -16 2 -26 -4 -26 -6 0
-9 4 -6 9 4 5 2 11 -3 13 -11 4 5 48 19 48 5 0 10 -7 10 -16z m-126 -13 c3 -5
-5 -8 -19 -7 -14 0 -25 4 -25 9 0 10 38 9 44 -2z m-72 -53 c-6 -6 -7 0 -4 19
5 21 7 23 10 9 2 -10 0 -22 -6 -28z m29 -11 c-8 -8 -11 -3 -11 19 1 25 2 27
11 11 8 -14 8 -22 0 -30z m114 33 c3 -5 1 -10 -4 -10 -6 0 -11 5 -11 10 0 6 2
10 4 10 3 0 8 -4 11 -10z m-570 -29 c-6 -5 -25 10 -25 20 0 5 6 4 14 -3 8 -7
12 -15 11 -17z m-38 -13 c-3 -7 -5 -2 -5 12 0 14 2 19 5 13 2 -7 2 -19 0 -25z
m119 -10 c-11 -15 -16 -18 -16 -7 0 16 21 42 28 34 2 -2 -3 -14 -12 -27z m94
22 c0 -5 -4 -10 -9 -10 -6 0 -13 5 -16 10 -3 6 1 10 9 10 9 0 16 -4 16 -10z
m61 -33 c-7 -7 -12 -5 -17 7 -4 11 -1 21 7 27 17 11 26 -18 10 -34z m59 27 c0
-8 -4 -12 -10 -9 -5 3 -10 10 -10 16 0 5 5 9 10 9 6 0 10 -7 10 -16z m40 -4
c0 -5 -2 -10 -4 -10 -3 0 -8 5 -11 10 -3 6 -1 10 4 10 6 0 11 -4 11 -10z m200
0 c0 -5 -4 -10 -10 -10 -5 0 -10 5 -10 10 0 6 5 10 10 10 6 0 10 -4 10 -10z
m-360 -25 c0 -8 -4 -15 -10 -15 -5 0 -7 7 -4 15 4 8 8 15 10 15 2 0 4 -7 4
-15z m28 -55 c-6 -25 -16 -51 -22 -58 -8 -8 -7 8 3 53 8 36 18 62 23 57 4 -4
2 -27 -4 -52z m-113 31 c3 -5 1 -12 -5 -16 -5 -3 -10 1 -10 9 0 18 6 21 15 7z
m25 -41 c0 -5 -5 -10 -11 -10 -5 0 -7 5 -4 10 3 6 8 10 11 10 2 0 4 -4 4 -10z
m32 -12 c-7 -7 -12 -8 -12 -2 0 6 3 14 7 17 3 4 9 5 12 2 2 -3 -1 -11 -7 -17z
m-1135 -50 c-3 -7 -5 -2 -5 12 0 14 2 19 5 13 2 -7 2 -19 0 -25z m-2087 1 c0
-5 -4 -9 -10 -9 -5 0 -10 7 -10 16 0 8 5 12 10 9 6 -3 10 -10 10 -16z m3221
-13 c-11 -26 -31 -36 -31 -14 0 13 31 50 37 44 2 -2 -1 -15 -6 -30z m20 -52
c-7 -24 -10 -26 -16 -11 -4 10 -2 24 5 32 18 21 21 14 11 -21z m-241 7 c0 -5
-7 -11 -15 -15 -15 -5 -20 5 -8 17 9 10 23 9 23 -2z m57 -133 c-3 -8 -6 -5 -6
6 -1 11 2 17 5 13 3 -3 4 -12 1 -19z m-698 -11 c6 -8 8 -17 5 -20 -9 -8 -44
11 -44 23 0 15 26 12 39 -3z m491 -47 c0 -5 -4 -10 -10 -10 -5 0 -10 5 -10 10
0 6 5 10 10 10 6 0 10 -4 10 -10z m-334 -67 c-10 -10 -19 5 -10 18 6 11 8 11
12 0 2 -7 1 -15 -2 -18z m-26 -13 c0 -5 -4 -10 -10 -10 -5 0 -10 5 -10 10 0 6
5 10 10 10 6 0 10 -4 10 -10z m40 -10 c12 -8 11 -10 -7 -10 -13 0 -23 5 -23
10 0 13 11 13 30 0z m-2187 -592 c4 -10 8 -9 16 2 5 8 14 11 18 6 4 -5 2 -11
-4 -13 -18 -6 -16 -23 2 -23 8 0 15 -9 15 -20 0 -11 4 -20 9 -20 5 0 12 -15
15 -32 3 -18 13 -46 21 -62 8 -15 12 -32 9 -38 -3 -5 6 -22 21 -38 31 -33 31
-77 0 -94 -11 -6 -22 -12 -25 -14 -2 -2 1 -7 8 -11 7 -4 10 -15 6 -24 -3 -9
-10 -15 -14 -12 -5 3 -11 1 -15 -5 -4 -6 -11 -7 -17 -4 -7 5 -9 1 -5 -8 4 -11
-2 -18 -18 -22 -27 -7 -75 8 -75 23 0 6 -7 8 -15 5 -20 -8 -45 13 -45 37 0 11
-14 25 -36 35 -36 17 -36 18 -31 70 3 29 1 54 -3 56 -5 2 -3 23 4 48 10 33 18
44 31 42 10 -2 19 5 22 17 3 11 12 18 21 16 13 -2 18 5 19 27 4 49 53 90 66
56z m207 -358 c0 -5 -4 -10 -10 -10 -5 0 -10 5 -10 10 0 6 5 10 10 10 6 0 10
-4 10 -10z m1985 -500 c3 -5 1 -10 -4 -10 -6 0 -11 5 -11 10 0 6 2 10 4 10 3
0 8 -4 11 -10z m45 -10 c0 -5 -4 -10 -9 -10 -6 0 -13 5 -16 10 -3 6 1 10 9 10
9 0 16 -4 16 -10z m-258 -352 c17 -14 30 -98 15 -98 -4 0 -5 -6 0 -12 4 -7 8
-22 10 -33 1 -11 -1 -14 -3 -7 -10 24 -20 12 -20 -25 -1 -21 1 -30 3 -20 5 20
19 23 25 5 3 -7 8 7 12 32 4 24 12 48 19 52 8 5 6 8 -5 8 -10 0 -18 5 -18 11
0 5 4 8 9 4 6 -3 15 3 21 12 8 13 13 15 17 5 4 -10 10 -10 28 2 29 19 55 11
55 -18 0 -11 7 -30 15 -40 14 -19 15 -19 15 8 0 35 17 66 36 66 17 0 34 -38
26 -59 -4 -11 1 -12 22 -7 34 8 137 -14 143 -31 3 -7 11 -13 19 -13 8 0 14 -9
14 -19 0 -14 5 -18 20 -14 14 4 24 -4 38 -26 10 -17 22 -28 25 -25 13 13 37
-26 38 -63 1 -21 3 -30 6 -20 3 10 11 16 18 13 8 -3 16 3 18 12 3 11 5 9 6 -7
1 -23 2 -23 19 -8 26 24 33 21 26 -8 -4 -15 -2 -25 5 -25 6 0 11 7 11 15 0 8
5 15 10 15 7 0 7 -7 0 -21 -13 -23 -4 -99 11 -99 12 0 12 -37 -1 -45 -5 -3
-10 3 -10 15 0 12 -4 19 -9 16 -5 -3 -12 16 -16 43 -4 28 -13 52 -21 55 -8 3
-14 1 -14 -4 0 -6 4 -10 9 -10 5 0 9 -13 9 -28 -1 -33 31 -122 43 -122 5 0 9
-7 9 -16 0 -11 -6 -14 -22 -9 -18 6 -20 5 -11 -5 12 -13 7 -40 -8 -40 -5 0 -9
6 -9 14 0 8 -4 18 -10 21 -6 4 -10 -6 -10 -23 0 -20 5 -29 14 -28 15 1 16 0
16 -34 0 -27 -18 -25 -23 3 -3 14 -5 8 -6 -15 0 -20 -5 -39 -9 -42 -5 -3 -7 9
-5 27 3 28 2 29 -7 10 -14 -34 -23 -28 -16 12 4 20 3 41 -1 48 -5 7 -10 -8
-14 -38 -6 -50 -6 -49 -7 17 -1 37 -6 69 -10 72 -5 3 -8 -9 -7 -27 2 -18 1
-35 -1 -39 -7 -12 -44 4 -44 19 0 8 -6 13 -12 10 -7 -2 -12 -13 -11 -25 2 -15
-2 -19 -17 -15 -11 3 -20 9 -20 14 0 9 -102 5 -119 -5 -6 -4 -11 -2 -11 3 0 6
5 11 11 11 5 0 7 5 4 10 -4 7 -16 1 -30 -14 -16 -17 -26 -21 -33 -14 -8 8 -15
8 -26 -1 -8 -7 -17 -8 -20 -3 -9 15 -54 20 -65 9 -8 -8 -11 -4 -11 12 0 12 -4
19 -10 16 -5 -3 -10 1 -10 9 0 19 20 31 44 27 11 -1 16 2 12 8 -15 23 -46 11
-63 -23 -22 -47 -44 -34 -63 33 -13 47 -29 68 -31 39 0 -10 -2 -10 -6 0 -8 20
-20 14 -33 -19 -10 -22 -15 -27 -21 -17 -7 11 -11 11 -18 -1 -7 -11 -10 -9
-15 7 -4 12 -17 29 -29 39 -12 10 -27 29 -34 43 -11 24 -12 24 -12 3 -2 -45
-19 -31 -25 21 -6 47 -10 53 -27 49 -10 -3 -20 -10 -20 -17 -1 -6 -5 3 -9 19
l-8 30 -1 -28 c0 -16 -5 -26 -11 -22 -5 3 -11 -2 -11 -12 -1 -17 -2 -17 -6 0
-2 9 -11 17 -19 17 -8 0 -14 -8 -14 -17 0 -12 -5 -9 -15 10 -8 15 -12 33 -9
40 3 8 0 24 -5 38 -10 24 -10 24 -11 -6 -1 -46 -23 -63 -57 -42 -8 5 -9 0 -5
-15 3 -14 2 -19 -6 -14 -7 4 -12 16 -12 27 0 10 -4 19 -10 19 -5 0 -10 12 -11
28 0 19 -2 22 -7 11 -5 -13 -10 -14 -18 -5 -5 6 -11 16 -12 21 -2 6 -18 9 -36
7 -20 -2 -39 3 -49 12 -13 14 -16 14 -21 1 -10 -27 -26 -16 -26 19 0 21 -6 36
-15 40 -10 4 -15 -1 -15 -16 0 -18 -3 -19 -12 -10 -10 10 -9 19 4 42 9 16 14
38 11 49 -4 15 -1 21 11 21 20 0 21 24 1 40 -17 14 -21 35 -4 24 6 -4 27 -10
45 -14 27 -6 34 -5 34 7 0 8 5 11 11 7 6 -3 16 0 21 7 7 10 11 11 14 2 3 -7
11 -10 18 -7 7 3 18 -7 26 -21 7 -14 17 -25 22 -25 4 0 3 -9 -4 -20 -11 -17
-10 -22 1 -29 8 -6 11 -17 6 -32 -6 -22 -5 -22 19 6 26 31 33 55 17 55 -5 0
-12 -6 -14 -12 -4 -8 -6 -7 -6 4 -1 9 2 24 5 33 6 13 9 14 16 3 6 -8 7 2 4 29
-4 35 -2 43 14 48 22 7 40 -1 40 -17 0 -6 7 -19 16 -29 10 -11 13 -23 8 -31
-5 -7 -14 -27 -20 -43 -9 -28 -8 -31 11 -33 14 -1 25 8 34 29 11 26 17 30 38
24 27 -6 53 -28 53 -43 0 -5 6 -21 13 -34 12 -23 13 -23 30 -7 17 16 17 17 -3
22 -14 3 -20 13 -20 31 0 14 -4 26 -10 26 -13 0 -6 63 8 68 5 1 13 -2 17 -7 3
-6 15 -11 26 -11 14 0 19 -7 19 -27 0 -23 2 -25 13 -13 7 8 19 33 26 55 14 42
29 65 40 65 4 0 14 -6 23 -12z m-184 -26 c2 -12 -6 -34 -17 -48 -19 -25 -21
-25 -21 -6 0 11 -5 24 -11 28 -8 4 -9 -1 -4 -17 7 -21 6 -22 -9 -7 -22 22 -20
36 7 59 28 24 51 20 55 -9z m-453 -102 c-17 -16 -18 -8 -8 41 l7 34 8 -30 c5
-21 3 -34 -7 -45z m-55 -15 c0 -12 -29 -35 -44 -35 -18 0 -33 56 -27 103 1 8
71 -59 71 -68z m-144 19 c-5 -48 -16 -73 -16 -36 0 11 -4 24 -10 27 -5 3 -10
17 -10 31 0 18 5 24 21 24 18 0 20 -5 15 -46z m179 -54 c3 -5 1 -10 -4 -10 -6
0 -11 5 -11 10 0 6 2 10 4 10 3 0 8 -4 11 -10z m-22 -35 c4 -8 2 -17 -3 -20
-6 -4 -10 3 -10 14 0 25 6 27 13 6z m494 -212 c-3 -10 -5 -2 -5 17 0 19 2 27
5 18 2 -10 2 -26 0 -35z m943 25 c0 -16 -3 -19 -11 -11 -6 6 -8 16 -5 22 11
17 16 13 16 -11z m-1023 -30 c-3 -7 -5 -2 -5 12 0 14 2 19 5 13 2 -7 2 -19 0
-25z m1231 -7 c3 -8 -1 -12 -9 -9 -7 2 -15 10 -17 17 -3 8 1 12 9 9 7 -2 15
-10 17 -17z m-231 -13 c-3 -8 -6 -5 -6 6 -1 11 2 17 5 13 3 -3 4 -12 1 -19z
m423 -9 c0 -11 -4 -18 -10 -14 -5 3 -7 12 -3 20 7 21 13 19 13 -6z m-90 -19
c0 -5 -7 -10 -16 -10 -8 0 -12 5 -9 10 3 6 10 10 16 10 5 0 9 -4 9 -10z m126
-55 c17 -48 16 -48 4 -40 -6 4 -8 -5 -5 -22 7 -48 13 -119 9 -101 -3 9 -12 19
-20 22 -11 4 -12 2 -4 -14 5 -10 10 -30 10 -44 l0 -26 -21 21 c-14 14 -24 18
-31 11 -19 -19 -38 -1 -38 34 0 19 3 33 8 33 44 -7 50 0 50 59 0 105 1 114 13
110 6 -2 17 -22 25 -43z m-236 9 c0 -8 -4 -14 -10 -14 -5 0 -10 9 -10 21 0 11
5 17 10 14 6 -3 10 -13 10 -21z m30 6 c0 -5 -5 -10 -11 -10 -5 0 -7 5 -4 10 3
6 8 10 11 10 2 0 4 -4 4 -10z m150 -10 c9 -17 8 -20 -7 -20 -10 0 -29 -7 -42
-16 -15 -11 -26 -13 -33 -6 -14 14 0 55 18 48 7 -3 16 -1 19 4 10 17 34 11 45
-10z m-102 -29 c4 -22 3 -22 -16 -4 -20 19 -19 37 1 30 7 -2 13 -14 15 -26z
m-264 3 c3 -9 3 -20 0 -25 -9 -15 -34 10 -27 27 7 19 19 18 27 -2z m189 -24
c-3 -11 0 -20 6 -20 6 0 11 -17 10 -42 l-1 -43 -10 35 c-17 64 -20 90 -10 90
6 0 8 -9 5 -20z m-35 -29 c-15 -5 -21 7 -13 26 7 17 8 17 15 -2 4 -11 3 -22
-2 -24z m82 24 c0 -8 -4 -15 -10 -15 -5 0 -10 7 -10 15 0 8 5 15 10 15 6 0 10
-7 10 -15z m130 -12 c0 -13 -3 -13 -15 -3 -8 7 -12 16 -9 21 8 13 24 1 24 -18z
m-420 3 c0 -3 -4 -8 -10 -11 -5 -3 -10 -1 -10 4 0 6 5 11 10 11 6 0 10 -2 10
-4z m-167 -39 c4 3 7 1 7 -5 0 -7 -4 -12 -10 -12 -5 0 -10 -7 -10 -15 0 -16
-15 -20 -24 -7 -3 5 -2 18 1 30 4 16 9 20 18 12 6 -5 15 -7 18 -3z m284 -10
c-5 -15 -30 -16 -39 -2 -4 5 0 13 10 16 21 8 34 1 29 -14z m179 -23 c6 -35 26
-50 36 -26 4 10 7 2 7 -23 1 -28 -2 -36 -9 -25 -8 12 -10 12 -16 -3 -8 -23
-23 -12 -17 13 3 11 0 20 -6 20 -6 0 -11 18 -11 42 0 45 8 47 16 2z m-237 -5
c3 -24 3 -24 -18 -5 -11 10 -18 23 -15 28 10 16 29 2 33 -23z m-79 8 c0 -7 -9
-18 -20 -25 -12 -7 -20 -8 -20 -2 0 5 5 10 10 10 6 0 10 7 10 15 0 8 5 15 10
15 6 0 10 -6 10 -13z m260 3 c0 -5 -2 -10 -4 -10 -3 0 -8 5 -11 10 -3 6 -1 10
4 10 6 0 11 -4 11 -10z m-130 -29 c-5 -11 -10 -29 -10 -41 0 -12 -4 -18 -10
-15 -5 3 -10 22 -10 41 0 28 4 34 20 34 17 0 19 -3 10 -19z m-110 -5 c0 -3 -4
-8 -10 -11 -5 -3 -10 -1 -10 4 0 6 5 11 10 11 6 0 10 -2 10 -4z m213 -81 c4
-8 2 -17 -3 -20 -6 -4 -10 3 -10 14 0 25 6 27 13 6z m21 -60 c-6 -16 -24 -21
-24 -7 0 11 11 22 21 22 5 0 6 -7 3 -15z m57 -58 c10 -3 19 -11 19 -18 0 -10
-3 -10 -11 -2 -6 6 -18 9 -25 6 -9 -3 -14 2 -15 16 -4 66 2 95 8 40 3 -26 10
-38 24 -42z m125 15 c-12 -11 -18 7 -10 30 l8 23 4 -23 c2 -13 1 -26 -2 -30z
m51 16 c2 -18 -3 -35 -9 -39 -14 -9 -28 -2 -28 12 0 6 4 8 9 4 17 -10 23 15 7
31 -20 20 -20 24 2 24 12 0 18 -9 19 -32z m-107 -8 c0 -5 -5 -10 -11 -10 -5 0
-7 5 -4 10 3 6 8 10 11 10 2 0 4 -4 4 -10z m100 -70 c0 -5 -4 -10 -10 -10 -5
0 -10 5 -10 10 0 6 5 10 10 10 6 0 10 -4 10 -10z m-63 -72 c-3 -7 -5 -2 -5 12
0 14 2 19 5 13 2 -7 2 -19 0 -25z m-230 -35 c-3 -10 -5 -4 -5 12 0 17 2 24 5
18 2 -7 2 -21 0 -30z m-131 -89 c-16 -30 -21 -17 -10 24 4 15 10 20 16 14 6
-6 4 -20 -6 -38z m-764 -276 c-7 -7 -12 -8 -12 -2 0 14 12 26 19 19 2 -3 -1
-11 -7 -17z m313 12 c3 -5 1 -10 -4 -10 -6 0 -11 5 -11 10 0 6 2 10 4 10 3 0
8 -4 11 -10z m-478 -41 c-5 -17 -2 -20 14 -16 12 3 19 0 19 -10 0 -8 -5 -11
-11 -7 -9 5 -10 -4 -5 -32 6 -35 5 -37 -8 -21 -8 10 -11 27 -8 39 3 14 1 19
-6 14 -7 -4 -12 -4 -12 1 0 16 12 53 17 53 3 0 3 -9 0 -21z m62 -11 c-2 -28
-2 -29 -6 -8 -3 14 -10 28 -17 32 -7 5 -5 8 7 8 13 0 17 -8 16 -32z m25 -33
c3 -8 1 -15 -4 -15 -6 0 -10 7 -10 15 0 8 2 15 4 15 2 0 6 -7 10 -15z m-106
-39 c12 -3 11 -4 -3 -3 -12 1 -20 10 -21 22 -1 14 0 15 3 3 2 -9 12 -19 21
-22z m92 -116 c0 -5 -2 -10 -4 -10 -3 0 -8 5 -11 10 -3 6 -1 10 4 10 6 0 11
-4 11 -10z"/>
<path d="M3690 5976 c0 -9 5 -16 10 -16 6 0 10 4 10 9 0 6 -4 13 -10 16 -5 3
-10 -1 -10 -9z"/>
<path d="M3720 5979 c0 -5 5 -7 10 -4 6 3 10 8 10 11 0 2 -4 4 -10 4 -5 0 -10
-5 -10 -11z"/>
<path d="M6192 4575 c0 -16 2 -22 5 -12 2 9 2 23 0 30 -3 6 -5 -1 -5 -18z"/>
<path d="M1951 2774 c0 -11 3 -14 6 -6 3 7 2 16 -1 19 -3 4 -6 -2 -5 -13z"/>
<path d="M3997 1576 c-4 -10 -1 -13 8 -9 8 3 12 9 9 14 -7 12 -11 11 -17 -5z"/>
<path d="M4170 1580 c0 -5 4 -10 9 -10 6 0 13 5 16 10 3 6 -1 10 -9 10 -9 0
-16 -4 -16 -10z"/>
<path d="M4218 1552 c-3 -11 0 -19 8 -19 16 0 19 23 5 31 -5 3 -11 -2 -13 -12z"/>
<path d="M3700 1541 c0 -5 -3 -17 -7 -27 -5 -12 -3 -15 6 -9 8 4 17 2 22 -6 7
-11 9 -11 9 3 0 23 -11 48 -21 48 -5 0 -9 -4 -9 -9z"/>
<path d="M4261 1534 c0 -11 3 -14 6 -6 3 7 2 16 -1 19 -3 4 -6 -2 -5 -13z"/>
<path d="M3780 1513 c0 -5 5 -15 10 -23 8 -12 10 -11 10 8 0 12 -4 22 -10 22
-5 0 -10 -3 -10 -7z"/>
<path d="M4557 1483 c-4 -3 -7 -11 -7 -17 0 -6 5 -5 12 2 6 6 9 14 7 17 -3 3
-9 2 -12 -2z"/>
<path d="M3710 1468 c-14 -6 -20 -12 -13 -15 7 -2 9 -11 6 -18 -4 -11 3 -14
26 -12 17 1 31 5 31 10 0 4 -4 7 -9 7 -5 0 -11 8 -13 19 -2 16 -7 17 -28 9z"/>
<path d="M3920 1444 c0 -8 5 -12 10 -9 6 3 10 10 10 16 0 5 -4 9 -10 9 -5 0
-10 -7 -10 -16z"/>
<path d="M3675 1420 c3 -5 8 -10 11 -10 2 0 4 5 4 10 0 6 -5 10 -11 10 -5 0
-7 -4 -4 -10z"/>
<path d="M3880 1411 c0 -6 4 -13 10 -16 6 -3 7 1 4 9 -7 18 -14 21 -14 7z"/>
<path d="M3818 1392 c-10 -2 -18 -8 -18 -13 0 -13 27 -11 35 2 9 13 4 16 -17
11z"/>
<path d="M3861 1384 c0 -11 3 -14 6 -6 3 7 2 16 -1 19 -3 4 -6 -2 -5 -13z"/>
<path d="M4621 1384 c0 -11 3 -14 6 -6 3 7 2 16 -1 19 -3 4 -6 -2 -5 -13z"/>
<path d="M3710 1375 c0 -8 5 -15 10 -15 6 0 10 7 10 15 0 8 -4 15 -10 15 -5 0
-10 -7 -10 -15z"/>
<path d="M3970 1385 c0 -5 5 -17 10 -25 5 -8 10 -10 10 -5 0 6 -5 17 -10 25
-5 8 -10 11 -10 5z"/>
<path d="M3770 1340 c0 -5 7 -10 16 -10 8 0 12 5 9 10 -3 6 -10 10 -16 10 -5
0 -9 -4 -9 -10z"/>
<path d="M3932 1320 c0 -14 2 -19 5 -12 2 6 2 18 0 25 -3 6 -5 1 -5 -13z"/>
<path d="M4054 1256 c-22 -23 -41 -61 -24 -51 6 3 10 1 10 -4 0 -6 4 -11 9
-11 7 0 34 82 28 85 -1 1 -11 -8 -23 -19z m6 -26 c0 -5 -2 -10 -4 -10 -3 0 -8
5 -11 10 -3 6 -1 10 4 10 6 0 11 -4 11 -10z"/>
<path d="M4000 1239 c0 -11 5 -17 10 -14 6 3 10 13 10 21 0 8 -4 14 -10 14 -5
0 -10 -9 -10 -21z"/>
<path d="M4660 1238 c0 -3 7 -24 15 -47 8 -23 12 -48 9 -55 -3 -8 -1 -17 5
-20 19 -12 10 82 -10 105 -11 12 -19 20 -19 17z"/>
<path d="M4715 1221 c-8 -26 1 -39 16 -24 8 8 8 17 1 29 -9 16 -10 15 -17 -5z"/>
<path d="M4170 1215 c0 -8 2 -15 4 -15 2 0 6 7 10 15 3 8 1 15 -4 15 -6 0 -10
-7 -10 -15z"/>
<path d="M4485 1220 c-3 -5 1 -10 10 -10 9 0 13 5 10 10 -3 6 -8 10 -10 10 -2
0 -7 -4 -10 -10z"/>
<path d="M4151 1204 c0 -11 3 -14 6 -6 3 7 2 16 -1 19 -3 4 -6 -2 -5 -13z"/>
<path d="M4616 1201 c-4 -7 -5 -15 -2 -18 9 -9 19 4 14 18 -4 11 -6 11 -12 0z"/>
<path d="M4310 1174 c0 -10 -6 -14 -15 -10 -18 6 -18 5 -5 -28 5 -14 15 -26
22 -25 10 0 10 2 1 6 -15 5 -18 33 -4 33 5 0 11 9 14 20 3 11 1 20 -4 20 -5 0
-9 -7 -9 -16z"/>
<path d="M4168 1154 c3 -17 7 -22 12 -13 9 13 2 39 -10 39 -4 0 -5 -12 -2 -26z"/>
<path d="M4430 1171 c0 -6 4 -13 10 -16 6 -3 7 1 4 9 -7 18 -14 21 -14 7z"/>
<path d="M4470 1148 c0 -36 4 -35 14 5 4 16 2 27 -4 27 -5 0 -10 -14 -10 -32z"/>
<path d="M4530 1130 c0 -5 4 -10 9 -10 6 0 13 5 16 10 3 6 -1 10 -9 10 -9 0
-16 -4 -16 -10z"/>
<path d="M5238 1136 c-5 -24 7 -111 12 -91 2 6 4 34 5 63 2 53 -9 71 -17 28z"/>
<path d="M5185 1000 c-3 -5 3 -10 15 -10 12 0 18 5 15 10 -3 6 -10 10 -15 10
-5 0 -12 -4 -15 -10z"/>
<path d="M6670 7721 c0 -5 5 -13 10 -16 6 -3 10 -2 10 4 0 5 -4 13 -10 16 -5
3 -10 2 -10 -4z"/>
<path d="M7030 7616 c0 -22 3 -27 11 -19 8 8 8 16 0 30 -9 16 -10 14 -11 -11z"/>
<path d="M7065 7611 c-3 -5 -1 -12 5 -16 5 -3 10 1 10 9 0 18 -6 21 -15 7z"/>
<path d="M6730 7600 c0 -5 5 -10 10 -10 6 0 10 5 10 10 0 6 -4 10 -10 10 -5 0
-10 -4 -10 -10z"/>
<path d="M7155 7601 c-6 -11 9 -23 19 -14 9 9 7 23 -3 23 -6 0 -12 -4 -16 -9z"/>
<path d="M7126 7582 c-4 -8 2 -16 19 -22 33 -12 35 -12 35 0 0 6 -9 10 -19 10
-11 0 -21 5 -23 12 -3 9 -6 9 -12 0z"/>
<path d="M6801 7554 c0 -11 3 -14 6 -6 3 7 2 16 -1 19 -3 4 -6 -2 -5 -13z"/>
<path d="M6840 7503 c0 -13 5 -23 10 -23 13 0 13 11 0 30 -8 12 -10 11 -10 -7z"/>
<path d="M6867 7474 c-4 -4 -7 -14 -7 -23 0 -11 3 -12 11 -4 6 6 10 16 7 23
-2 6 -7 8 -11 4z"/>
<path d="M6873 7374 c-3 -8 0 -27 6 -41 9 -21 14 -23 26 -13 23 19 19 39 -6
33 -18 -5 -20 -3 -14 16 7 24 -3 29 -12 5z"/>
<path d="M6698 7333 c-2 -5 -1 -26 3 -48 l6 -40 2 48 c1 44 -3 57 -11 40z"/>
<path d="M6673 7305 c7 -13 14 -20 15 -14 5 14 -6 39 -17 39 -5 0 -4 -11 2
-25z"/>
<path d="M6991 7321 c-10 -7 -11 -13 -2 -29 14 -26 43 -18 39 11 -3 24 -17 30
-37 18z"/>
<path d="M6946 7313 c5 -5 12 -12 16 -18 4 -6 8 -2 8 8 0 9 -7 17 -17 17 -9 0
-12 -3 -7 -7z"/>
<path d="M6640 7171 c0 -6 4 -13 10 -16 6 -3 7 1 4 9 -7 18 -14 21 -14 7z"/>
<path d="M7857 7130 c8 -35 13 -38 13 -7 0 14 6 27 13 30 6 3 2 4 -10 4 -19
-1 -21 -5 -16 -27z"/>
<path d="M6320 7055 c0 -8 9 -19 20 -25 11 -6 20 -17 20 -25 0 -8 5 -15 10
-15 18 0 10 29 -15 55 -30 29 -35 31 -35 10z"/>
<path d="M6260 7016 c0 -9 5 -16 10 -16 6 0 10 4 10 9 0 6 -4 13 -10 16 -5 3
-10 -1 -10 -9z"/>
<path d="M7992 6987 c-17 -20 -12 -40 6 -28 8 5 12 16 10 26 -3 17 -4 17 -16
2z"/>
<path d="M6620 6879 c0 -5 5 -7 10 -4 6 3 10 8 10 11 0 2 -4 4 -10 4 -5 0 -10
-5 -10 -11z"/>
<path d="M6641 6828 c1 -7 5 -24 9 -38 7 -22 8 -21 9 13 1 20 -3 37 -9 37 -5
0 -10 -6 -9 -12z"/>
<path d="M6195 6650 c3 -5 8 -10 11 -10 2 0 4 5 4 10 0 6 -5 10 -11 10 -5 0
-7 -4 -4 -10z"/>
<path d="M8120 6594 c0 -8 5 -12 10 -9 6 3 10 10 10 16 0 5 -4 9 -10 9 -5 0
-10 -7 -10 -16z"/>
<path d="M5660 6495 c0 -6 7 -28 16 -50 l15 -40 -6 40 c-6 36 -25 75 -25 50z"/>
<path d="M5716 6424 c-4 -10 0 -24 9 -33 13 -14 15 -13 15 4 0 11 -4 26 -9 33
-6 11 -10 10 -15 -4z"/>
<path d="M6280 6400 c0 -5 5 -10 10 -10 6 0 10 5 10 10 0 6 -4 10 -10 10 -5 0
-10 -4 -10 -10z"/>
<path d="M5693 6383 c-7 -3 -13 -14 -13 -26 0 -20 1 -20 16 -5 18 18 16 37 -3
31z"/>
<path d="M6427 6350 c3 -11 10 -23 16 -27 7 -4 8 0 4 11 -4 10 -7 22 -7 27 0
5 -4 9 -9 9 -5 0 -7 -9 -4 -20z"/>
<path d="M2005 6350 c3 -5 8 -10 11 -10 2 0 4 5 4 10 0 6 -5 10 -11 10 -5 0
-7 -4 -4 -10z"/>
<path d="M2041 6344 c0 -11 3 -14 6 -6 3 7 2 16 -1 19 -3 4 -6 -2 -5 -13z"/>
<path d="M5731 6344 c0 -11 3 -14 6 -6 3 7 2 16 -1 19 -3 4 -6 -2 -5 -13z"/>
<path d="M5881 6330 c0 -14 4 -32 9 -40 8 -12 10 -12 9 5 0 11 -4 29 -9 40 -8
18 -9 18 -9 -5z"/>
<path d="M5746 6317 c-10 -8 -17 -19 -15 -25 5 -14 42 13 37 28 -2 7 -9 6 -22
-3z"/>
<path d="M1580 6283 c0 -14 27 -29 36 -21 2 3 2 12 -1 20 -7 18 -35 19 -35 1z"/>
<path d="M1656 6285 c-3 -9 -6 -22 -5 -28 0 -7 5 -1 10 12 5 13 8 26 5 28 -2
2 -6 -3 -10 -12z"/>
<path d="M5705 6287 c-17 -20 -16 -57 0 -57 10 0 15 11 15 35 0 39 -1 40 -15
22z"/>
<path d="M6150 6260 c0 -5 7 -7 15 -4 8 4 15 8 15 10 0 2 -7 4 -15 4 -8 0 -15
-4 -15 -10z"/>
<path d="M2390 6197 c0 -8 9 -22 20 -32 24 -21 28 -1 6 28 -16 20 -26 22 -26
4z"/>
<path d="M5680 6186 c0 -14 4 -27 9 -31 12 -7 25 31 16 45 -11 18 -25 10 -25
-14z"/>
<path d="M5716 6173 c-6 -14 -5 -15 5 -6 7 7 10 15 7 18 -3 3 -9 -2 -12 -12z"/>
<path d="M5761 6141 c0 -20 3 -30 6 -23 4 10 8 10 21 0 13 -11 15 -10 9 12 -4
14 -7 30 -7 36 0 6 -7 11 -15 11 -11 0 -15 -11 -14 -36z"/>
<path d="M5735 6130 c-3 -5 -1 -10 4 -10 6 0 11 5 11 10 0 6 -2 10 -4 10 -3 0
-8 -4 -11 -10z"/>
<path d="M5905 6100 c-3 -5 -1 -10 4 -10 6 0 11 5 11 10 0 6 -2 10 -4 10 -3 0
-8 -4 -11 -10z"/>
<path d="M5831 6054 c0 -11 3 -14 6 -6 3 7 2 16 -1 19 -3 4 -6 -2 -5 -13z"/>
<path d="M5835 6020 c-3 -5 -1 -10 4 -10 6 0 11 5 11 10 0 6 -2 10 -4 10 -3 0
-8 -4 -11 -10z"/>
<path d="M8250 5930 c0 -5 5 -10 10 -10 6 0 10 5 10 10 0 6 -4 10 -10 10 -5 0
-10 -4 -10 -10z"/>
<path d="M8271 5784 c0 -11 3 -14 6 -6 3 7 2 16 -1 19 -3 4 -6 -2 -5 -13z"/>
<path d="M8258 5708 c-2 -7 1 -29 8 -48 l13 -35 0 48 c1 43 -11 64 -21 35z"/>
<path d="M6002 5550 c0 -14 2 -19 5 -12 2 6 2 18 0 25 -3 6 -5 1 -5 -13z"/>
<path d="M1400 5541 c0 -6 5 -13 10 -16 6 -3 10 1 10 9 0 9 -4 16 -10 16 -5 0
-10 -4 -10 -9z"/>
<path d="M6026 5521 c-4 -7 -5 -15 -2 -18 9 -9 19 4 14 18 -4 11 -6 11 -12 0z"/>
<path d="M5910 5435 c0 -8 5 -15 10 -15 6 0 10 -12 10 -27 1 -25 2 -26 14 -11
7 10 17 14 21 10 5 -4 -2 8 -15 26 -26 35 -40 41 -40 17z"/>
<path d="M6031 5424 c0 -11 3 -14 6 -6 3 7 2 16 -1 19 -3 4 -6 -2 -5 -13z"/>
<path d="M3682 5410 c0 -14 2 -19 5 -12 2 6 2 18 0 25 -3 6 -5 1 -5 -13z"/>
<path d="M5962 5345 c0 -16 2 -22 5 -12 2 9 2 23 0 30 -3 6 -5 -1 -5 -18z"/>
<path d="M3846 5281 c-5 -8 -3 -16 4 -21 8 -5 11 -19 7 -39 -4 -16 -3 -33 2
-35 11 -7 23 66 12 74 -4 3 -10 12 -13 20 -3 11 -6 11 -12 1z"/>
<path d="M3806 5271 c-4 -7 -5 -15 -2 -18 9 -9 19 4 14 18 -4 11 -6 11 -12 0z"/>
<path d="M6020 5220 c0 -19 3 -21 12 -12 9 9 9 15 0 24 -9 9 -12 7 -12 -12z"/>
<path d="M6051 5224 c0 -11 3 -14 6 -6 3 7 2 16 -1 19 -3 4 -6 -2 -5 -13z"/>
<path d="M3886 5213 c-4 -9 -2 -21 4 -27 7 -7 10 -2 10 17 0 31 -5 34 -14 10z"/>
<path d="M6090 5210 c0 -5 5 -10 10 -10 6 0 10 5 10 10 0 6 -4 10 -10 10 -5 0
-10 -4 -10 -10z"/>
<path d="M3781 5154 c0 -11 3 -14 6 -6 3 7 2 16 -1 19 -3 4 -6 -2 -5 -13z"/>
<path d="M6057 5154 c-3 -6 0 -26 6 -45 12 -34 13 -35 31 -18 14 14 17 25 10
46 l-8 28 -6 -35 -6 -35 -10 35 c-6 19 -13 30 -17 24z"/>
<path d="M6271 5094 c0 -11 3 -14 6 -6 3 7 2 16 -1 19 -3 4 -6 -2 -5 -13z"/>
<path d="M6022 5070 c0 -14 2 -19 5 -12 2 6 2 18 0 25 -3 6 -5 1 -5 -13z"/>
<path d="M6051 5064 c0 -11 3 -14 6 -6 3 7 2 16 -1 19 -3 4 -6 -2 -5 -13z"/>
<path d="M6044 4968 c1 -47 5 -68 14 -68 7 0 12 14 12 35 0 19 -4 35 -9 35 -6
0 -11 15 -14 33 -2 17 -3 2 -3 -35z"/>
<path d="M6112 4980 c0 -14 2 -19 5 -12 2 6 2 18 0 25 -3 6 -5 1 -5 -13z"/>
<path d="M6174 4952 c-6 -4 -8 -18 -4 -31 l5 -24 12 26 c12 27 5 41 -13 29z"/>
<path d="M6096 4925 c-3 -8 -1 -15 4 -15 6 0 10 7 10 15 0 8 -2 15 -4 15 -2 0
-6 -7 -10 -15z"/>
<path d="M6127 4909 c5 -18 3 -20 -15 -15 -11 4 -23 2 -26 -3 -7 -11 61 -27
71 -17 8 8 -14 56 -26 56 -5 0 -7 -10 -4 -21z"/>
<path d="M6222 4880 c0 -19 2 -27 5 -17 2 9 2 25 0 35 -3 9 -5 1 -5 -18z"/>
<path d="M6172 4811 c0 -22 4 -38 9 -35 5 3 7 9 4 14 -3 5 1 12 8 17 12 7 11
11 -4 27 -17 18 -18 17 -17 -23z"/>
<path d="M3571 4825 c0 -11 4 -38 8 -60 l9 -40 1 45 c0 25 -4 52 -9 60 -8 12
-10 12 -9 -5z"/>
<path d="M6340 4734 c0 -8 5 -12 10 -9 6 4 8 11 5 16 -9 14 -15 11 -15 -7z"/>
<path d="M6221 4694 c0 -11 3 -14 6 -6 3 7 2 16 -1 19 -3 4 -6 -2 -5 -13z"/>
<path d="M6281 4664 c0 -11 3 -14 6 -6 3 7 2 16 -1 19 -3 4 -6 -2 -5 -13z"/>
<path d="M6271 4614 c0 -11 3 -14 6 -6 3 7 2 16 -1 19 -3 4 -6 -2 -5 -13z"/>
<path d="M6008 4588 c-2 -16 -10 -23 -25 -23 -29 -1 -56 -34 -39 -49 28 -26
58 -38 69 -27 7 7 14 5 23 -7 12 -16 13 -16 14 0 0 9 -9 23 -20 31 -18 13 -20
19 -11 56 5 22 5 41 1 41 -5 0 -10 -10 -12 -22z"/>
<path d="M5912 4581 c-10 -6 -10 -10 1 -20 12 -9 16 -8 20 3 7 19 -4 27 -21
17z"/>
<path d="M6270 4570 c0 -11 -4 -20 -9 -20 -6 0 -9 -9 -8 -19 2 -33 27 -11 27
25 0 19 -2 34 -5 34 -3 0 -5 -9 -5 -20z"/>
<path d="M6050 4531 c0 -11 5 -23 12 -27 8 -5 9 -2 5 9 -4 10 -2 16 5 14 6 -1
13 4 15 11 3 7 -4 12 -16 12 -14 0 -21 -6 -21 -19z"/>
<path d="M6298 4520 c-20 -19 -23 -48 -7 -70 8 -12 9 -10 4 7 -9 31 10 37 24
6 6 -14 14 -23 18 -20 3 4 0 13 -6 21 -7 8 -10 23 -7 33 9 29 -6 43 -26 23z"/>
<path d="M6500 4510 c0 -5 5 -10 10 -10 6 0 10 5 10 10 0 6 -4 10 -10 10 -5 0
-10 -4 -10 -10z"/>
<path d="M6350 4491 c0 -6 5 -13 10 -16 6 -3 10 1 10 9 0 9 -4 16 -10 16 -5 0
-10 -4 -10 -9z"/>
<path d="M1250 4480 c0 -5 5 -10 10 -10 6 0 10 5 10 10 0 6 -4 10 -10 10 -5 0
-10 -4 -10 -10z"/>
<path d="M5834 4476 c-3 -8 -4 -23 -1 -33 4 -14 5 -13 6 5 0 12 5 22 10 22 4
0 6 -24 5 -52 l-4 -53 13 45 c12 45 31 57 32 20 0 -23 19 -28 23 -6 4 19 -21
46 -42 46 -9 0 -16 5 -16 10 0 15 -20 12 -26 -4z"/>
<path d="M6065 4467 c-5 -12 -8 -35 -6 -52 5 -29 5 -29 12 10 7 38 7 37 6 -12
-1 -30 3 -55 9 -57 6 -2 11 1 11 7 0 7 3 29 7 49 5 26 3 39 -7 45 -8 4 -16 13
-18 20 -2 7 -8 3 -14 -10z"/>
<path d="M6540 4470 c0 -5 5 -10 10 -10 6 0 10 5 10 10 0 6 -4 10 -10 10 -5 0
-10 -4 -10 -10z"/>
<path d="M5790 4447 c0 -13 9 -32 19 -41 11 -10 22 -28 24 -40 4 -20 4 -20 6
2 0 13 -7 32 -18 43 -11 12 -17 29 -14 40 3 10 0 19 -6 19 -6 0 -11 -11 -11
-23z"/>
<path d="M5962 4403 l1 -48 4 43 c5 52 20 55 28 5 10 -59 13 -62 14 -12 1 34
-3 49 -15 53 -30 11 -34 6 -32 -41z"/>
<path d="M6386 4435 c-4 -11 -1 -22 6 -27 20 -13 42 -5 46 17 3 16 1 18 -9 8
-10 -10 -15 -9 -24 4 -11 14 -12 14 -19 -2z"/>
<path d="M6467 4435 c-23 -22 -30 -54 -17 -70 7 -9 8 -15 0 -20 -13 -8 -13
-45 0 -45 6 0 13 6 16 14 3 9 12 12 22 9 12 -5 14 -2 9 11 -4 10 -7 24 -7 32
0 8 -6 11 -16 7 -13 -5 -15 -2 -9 18 10 33 13 35 35 21 25 -15 26 -7 1 19 -17
18 -20 19 -34 4z"/>
<path d="M6535 4440 c-3 -5 -1 -10 4 -10 6 0 11 5 11 10 0 6 -2 10 -4 10 -3 0
-8 -4 -11 -10z"/>
<path d="M6020 4436 c0 -2 7 -17 15 -32 l15 -29 0 33 c0 22 -5 32 -15 32 -8 0
-15 -2 -15 -4z"/>
<path d="M6350 4420 c0 -5 5 -10 11 -10 5 0 7 5 4 10 -3 6 -8 10 -11 10 -2 0
-4 -4 -4 -10z"/>
<path d="M5871 4384 c0 -11 3 -14 6 -6 3 7 2 16 -1 19 -3 4 -6 -2 -5 -13z"/>
<path d="M5890 4373 c0 -10 4 -14 8 -8 4 6 11 13 16 18 5 4 2 7 -7 7 -10 0
-17 -8 -17 -17z"/>
<path d="M6022 4370 c0 -14 2 -19 5 -12 2 6 2 18 0 25 -3 6 -5 1 -5 -13z"/>
<path d="M5800 4355 c0 -17 -5 -36 -12 -43 -8 -8 -9 -18 0 -36 6 -13 8 -34 5
-47 -5 -16 -3 -20 6 -14 8 5 11 22 9 49 -3 22 -1 53 3 67 4 15 3 33 -2 40 -6
10 -9 5 -9 -16z"/>
<path d="M6230 4366 c0 -8 5 -18 10 -21 6 -3 10 1 10 9 0 8 -4 18 -10 21 -5 3
-10 -1 -10 -9z"/>
<path d="M6410 4360 c0 -11 7 -20 15 -20 17 0 18 2 9 24 -9 23 -24 20 -24 -4z"/>
<path d="M6522 4361 c4 -13 18 -16 19 -4 0 4 -5 9 -11 12 -7 2 -11 -2 -8 -8z"/>
<path d="M5851 4342 c-1 -13 -4 -21 -8 -19 -10 7 -10 -109 0 -119 4 -4 7 1 6
12 -6 57 2 104 16 104 8 0 15 -4 15 -10 0 -5 7 -10 15 -10 8 0 15 5 15 10 0 6
-6 10 -14 10 -7 0 -21 10 -29 23 l-16 22 0 -23z"/>
<path d="M5918 4348 c-9 -22 -1 -45 18 -52 10 -4 14 3 14 27 0 22 -3 28 -9 18
-7 -11 -10 -10 -13 5 -3 18 -4 18 -10 2z"/>
<path d="M6370 4335 c0 -8 5 -15 10 -15 6 0 10 -6 10 -14 0 -8 6 -17 13 -19 6
-3 3 -6 -8 -7 -17 -1 -16 -3 8 -16 16 -9 26 -21 24 -27 -3 -7 -8 -20 -12 -29
-11 -27 10 -21 25 6 17 32 7 69 -30 106 -33 34 -40 36 -40 15z"/>
<path d="M5962 4320 c0 -14 2 -19 5 -12 2 6 2 18 0 25 -3 6 -5 1 -5 -13z"/>
<path d="M6060 4330 c0 -5 5 -10 10 -10 6 0 10 5 10 10 0 6 -4 10 -10 10 -5 0
-10 -4 -10 -10z"/>
<path d="M6330 4332 c0 -5 9 -17 20 -27 16 -14 20 -15 20 -4 0 16 -19 39 -32
39 -4 0 -8 -4 -8 -8z"/>
<path d="M6217 4309 c-8 -30 -6 -31 23 -3 13 13 19 24 12 24 -6 0 -12 -6 -12
-12 0 -10 -2 -10 -9 0 -6 10 -10 8 -14 -9z"/>
<path d="M5995 4290 c-7 -12 2 -30 16 -30 12 0 12 27 0 35 -5 3 -12 1 -16 -5z"/>
<path d="M6242 4270 c0 -14 2 -19 5 -12 2 6 2 18 0 25 -3 6 -5 1 -5 -13z"/>
<path d="M6454 4279 c-5 -8 -2 -11 7 -7 12 5 14 -1 11 -23 -3 -18 0 -29 7 -29
16 0 10 62 -6 67 -6 2 -15 -1 -19 -8z"/>
<path d="M6325 4260 c-3 -5 0 -10 8 -10 8 0 20 -7 27 -15 7 -8 16 -12 22 -9 5
3 -1 14 -13 25 -25 21 -35 24 -44 9z"/>
<path d="M6230 4223 c0 -15 18 -35 23 -27 3 5 -1 15 -9 22 -8 7 -14 9 -14 5z"/>
<path d="M6061 4204 c0 -11 3 -14 6 -6 3 7 2 16 -1 19 -3 4 -6 -2 -5 -13z"/>
<path d="M5551 4164 c0 -11 3 -14 6 -6 3 7 2 16 -1 19 -3 4 -6 -2 -5 -13z"/>
<path d="M6001 4164 c0 -11 3 -14 6 -6 3 7 2 16 -1 19 -3 4 -6 -2 -5 -13z"/>
<path d="M1467 4140 c-3 -11 -2 -20 3 -20 12 0 21 28 11 35 -5 2 -11 -4 -14
-15z"/>
<path d="M5740 4120 c0 -11 2 -20 4 -20 2 0 6 9 9 20 3 11 1 20 -4 20 -5 0 -9
-9 -9 -20z"/>
<path d="M5765 4120 c-3 -5 -1 -10 4 -10 6 0 11 5 11 10 0 6 -2 10 -4 10 -3 0
-8 -4 -11 -10z"/>
<path d="M5711 4104 c0 -11 3 -14 6 -6 3 7 2 16 -1 19 -3 4 -6 -2 -5 -13z"/>
<path d="M5608 4105 c-3 -3 -3 -18 0 -32 5 -25 6 -25 13 -8 14 36 6 59 -13 40z"/>
<path d="M5639 4088 c0 -2 -3 -19 -5 -38 -3 -19 -12 -40 -20 -46 -17 -14 -18
-22 -1 -39 11 -11 15 -8 25 18 19 56 24 95 13 102 -6 3 -11 5 -12 3z"/>
<path d="M5802 4070 c0 -14 2 -19 5 -12 2 6 2 18 0 25 -3 6 -5 1 -5 -13z"/>
<path d="M5580 4059 c-6 -11 -9 -28 -7 -37 4 -15 5 -15 6 1 0 10 6 15 11 12 6
-4 10 5 10 19 0 31 -6 33 -20 5z"/>
<path d="M5673 4040 c-10 -28 -1 -45 10 -17 3 7 6 6 6 -5 1 -9 5 -19 11 -23 6
-3 6 5 0 22 -4 15 -10 34 -12 41 -2 7 -8 -1 -15 -18z"/>
<path d="M5487 4013 c-4 -3 -7 -11 -7 -17 0 -6 5 -5 12 2 6 6 9 14 7 17 -3 3
-9 2 -12 -2z"/>
<path d="M5522 4000 c7 -10 14 -18 15 -16 6 6 -9 36 -18 36 -5 0 -4 -9 3 -20z"/>
<path d="M5581 3984 c0 -11 3 -14 6 -6 3 7 2 16 -1 19 -3 4 -6 -2 -5 -13z"/>
<path d="M5550 3976 c0 -9 5 -16 10 -16 6 0 10 4 10 9 0 6 -4 13 -10 16 -5 3
-10 -1 -10 -9z"/>
<path d="M5147 3937 c-11 -29 -9 -43 4 -30 6 6 9 19 7 29 -3 18 -4 18 -11 1z"/>
<path d="M1760 3930 c0 -5 5 -10 11 -10 5 0 7 5 4 10 -3 6 -8 10 -11 10 -2 0
-4 -4 -4 -10z"/>
<path d="M5090 3915 c0 -12 -5 -26 -12 -33 -20 -20 -5 -22 19 -2 20 15 20 20
8 36 -14 18 -14 18 -15 -1z"/>
<path d="M5462 3899 c1 -12 8 -24 15 -26 7 -3 9 3 6 17 -8 29 -25 37 -21 9z"/>
<path d="M5251 3873 c0 -17 3 -22 6 -13 4 8 13 20 22 27 14 11 13 12 -6 13
-19 0 -23 -5 -22 -27z"/>
<path d="M5300 3869 c0 -5 -5 -7 -11 -3 -7 4 -10 1 -7 -6 7 -23 28 -23 28 -1
0 12 -2 21 -5 21 -3 0 -5 -5 -5 -11z"/>
<path d="M5415 3870 c-3 -5 -1 -10 4 -10 6 0 11 5 11 10 0 6 -2 10 -4 10 -3 0
-8 -4 -11 -10z"/>
<path d="M5123 3857 c4 -11 2 -14 -9 -10 -7 3 -14 1 -14 -4 0 -5 9 -9 20 -10
22 -2 27 21 8 33 -7 5 -9 2 -5 -9z"/>
<path d="M5150 3829 c0 -5 5 -9 10 -9 6 0 10 -18 10 -40 0 -51 17 -52 22 -2 3
32 -1 41 -19 49 -13 6 -23 7 -23 2z"/>
<path d="M5261 3814 c0 -11 3 -14 6 -6 3 7 2 16 -1 19 -3 4 -6 -2 -5 -13z"/>
<path d="M5339 3828 c-7 -25 -4 -34 12 -34 12 0 19 7 19 18 0 10 -7 18 -15 18
-8 0 -15 -1 -16 -2z"/>
<path d="M3912 3743 c2 -17 9 -28 18 -28 23 0 23 32 0 45 -20 11 -21 9 -18
-17z"/>
<path d="M5071 3754 c0 -11 3 -14 6 -6 3 7 2 16 -1 19 -3 4 -6 -2 -5 -13z"/>
<path d="M4915 3750 c3 -5 8 -10 11 -10 2 0 4 5 4 10 0 6 -5 10 -11 10 -5 0
-7 -4 -4 -10z"/>
<path d="M3730 3740 c0 -5 5 -10 10 -10 6 0 10 -6 10 -14 0 -21 17 -29 23 -12
3 8 -5 21 -19 30 -13 9 -24 12 -24 6z"/>
<path d="M5214 3739 c-3 -6 -1 -16 5 -22 8 -8 11 -5 11 11 0 24 -5 28 -16 11z"/>
<path d="M5270 3721 c0 -25 6 -27 13 -6 4 8 2 17 -3 20 -6 4 -10 -3 -10 -14z"/>
<path d="M4912 3718 c-16 -16 -15 -29 1 -22 8 3 14 11 14 19 0 18 0 18 -15 3z"/>
<path d="M5120 3714 c0 -8 5 -12 10 -9 6 4 8 11 5 16 -9 14 -15 11 -15 -7z"/>
<path d="M3837 3700 c3 -11 7 -20 9 -20 2 0 4 9 4 20 0 11 -4 20 -9 20 -5 0
-7 -9 -4 -20z"/>
<path d="M3795 3701 c-3 -5 -1 -12 5 -16 5 -3 10 1 10 9 0 18 -6 21 -15 7z"/>
<path d="M4871 3694 c0 -11 3 -14 6 -6 3 7 2 16 -1 19 -3 4 -6 -2 -5 -13z"/>
<path d="M3576 3681 c-4 -7 -5 -15 -2 -18 9 -9 19 4 14 18 -4 11 -6 11 -12 0z"/>
<path d="M4870 3647 c0 -10 8 -17 18 -17 9 0 13 4 7 8 -5 4 -13 11 -17 16 -5
5 -8 2 -8 -7z"/>
<path d="M4018 3613 c7 -3 16 -2 19 1 4 3 -2 6 -13 5 -11 0 -14 -3 -6 -6z"/>
<path d="M3491 3594 c0 -11 3 -14 6 -6 3 7 2 16 -1 19 -3 4 -6 -2 -5 -13z"/>
<path d="M3912 3585 c0 -16 2 -22 5 -12 2 9 2 23 0 30 -3 6 -5 -1 -5 -18z"/>
<path d="M4796 3575 c-3 -9 -6 -26 -5 -38 1 -14 4 -9 9 13 9 37 7 52 -4 25z"/>
<path d="M4085 3570 c-3 -5 -1 -10 4 -10 6 0 11 5 11 10 0 6 -2 10 -4 10 -3 0
-8 -4 -11 -10z"/>
<path d="M4736 3572 c-2 -4 -1 -14 3 -21 6 -10 10 -9 14 3 6 16 -8 32 -17 18z"/>
<path d="M4666 3511 c-4 -7 -5 -15 -2 -18 9 -9 19 4 14 18 -4 11 -6 11 -12 0z"/>
<path d="M4761 3488 c-1 -20 14 -24 25 -6 4 6 3 8 -4 4 -5 -3 -13 0 -15 6 -3
8 -6 6 -6 -4z"/>
<path d="M4565 3400 c3 -5 8 -10 11 -10 2 0 4 5 4 10 0 6 -5 10 -11 10 -5 0
-7 -4 -4 -10z"/>
<path d="M2550 3218 c0 -9 5 -20 10 -23 13 -8 13 5 0 25 -8 13 -10 13 -10 -2z"/>
<path d="M3986 2121 c-4 -7 -5 -15 -2 -18 9 -9 19 4 14 18 -4 11 -6 11 -12 0z"/>
<path d="M4085 2111 c-3 -5 -1 -12 5 -16 5 -3 10 1 10 9 0 18 -6 21 -15 7z"/>
<path d="M4290 2100 c19 -13 30 -13 30 0 0 6 -10 10 -22 10 -19 0 -20 -2 -8
-10z"/>
<path d="M3928 2073 c7 -3 16 -2 19 1 4 3 -2 6 -13 5 -11 0 -14 -3 -6 -6z"/>
<path d="M4460 2072 c0 -7 7 -20 15 -28 19 -20 20 -4 0 22 -9 12 -14 14 -15 6z"/>
<path d="M4850 1859 c0 -11 4 -18 10 -14 5 3 7 12 3 20 -7 21 -13 19 -13 -6z"/>
<path d="M8151 1474 c0 -11 3 -14 6 -6 3 7 2 16 -1 19 -3 4 -6 -2 -5 -13z"/>
<path d="M8225 1480 c9 -14 -2 -60 -15 -60 -6 0 -10 10 -11 23 -1 18 -3 16 -9
-8 -4 -16 -11 -38 -15 -49 -7 -15 -5 -17 13 -11 17 5 22 2 22 -10 0 -9 -9 -19
-20 -22 -14 -4 -20 -14 -20 -32 1 -25 1 -25 15 -7 11 14 15 16 15 5 0 -18 -37
-42 -52 -33 -15 9 -28 -15 -28 -53 0 -17 -5 -35 -11 -39 -16 -10 -30 17 -24
44 4 16 2 21 -5 17 -7 -4 -10 -33 -7 -78 2 -40 2 -64 0 -54 -7 29 -23 19 -24
-15 0 -18 -3 -27 -6 -20 -4 10 -8 10 -19 1 -8 -6 -14 -17 -14 -23 0 -6 -7 -22
-16 -34 -13 -19 -18 -21 -31 -10 -12 10 -18 9 -28 -6 -12 -16 -14 -16 -22 -1
-8 13 -12 8 -23 -24 -16 -49 -25 -52 -33 -11 -5 20 -12 30 -24 30 -16 -1 -16
-2 2 -16 14 -11 16 -18 8 -21 -7 -3 -13 -14 -13 -26 0 -12 -5 -29 -10 -37 -8
-13 -10 -13 -10 2 0 22 -18 32 -34 19 -7 -6 -16 -8 -19 -4 -7 6 -9 -3 -11 -52
-1 -13 -7 -19 -18 -19 -13 1 -18 -6 -18 -23 0 -18 -4 -24 -14 -20 -8 3 -20 -1
-26 -9 -16 -18 -30 -18 -30 1 0 8 7 15 15 15 8 0 15 7 15 16 0 11 -5 14 -16
10 -9 -3 -20 -6 -25 -6 -5 0 -9 -9 -9 -20 0 -11 -4 -20 -10 -20 -5 0 -10 -4
-10 -10 0 -5 4 -9 9 -7 5 1 9 -2 9 -8 1 -5 -9 -9 -21 -8 -17 1 -26 -9 -41 -40
-10 -23 -20 -36 -23 -29 -4 10 -8 10 -19 1 -8 -7 -17 -9 -21 -5 -10 9 -43 -25
-43 -45 0 -10 7 -24 15 -32 12 -13 11 -15 -10 -13 -15 0 -25 7 -25 16 -1 11
-6 8 -20 -8 -10 -13 -17 -29 -14 -36 3 -8 1 -17 -5 -21 -6 -3 -14 1 -17 9 -5
12 -9 13 -19 3 -7 -6 -11 -17 -8 -23 5 -14 -65 -76 -78 -69 -5 4 -9 -1 -9 -11
0 -12 -3 -14 -13 -6 -14 12 -36 -8 -76 -69 -17 -25 -30 -35 -43 -31 -12 3 -18
-1 -18 -12 0 -10 5 -14 10 -11 6 3 10 1 10 -5 0 -13 -40 -29 -56 -23 -7 2 -18
-10 -25 -26 -8 -17 -19 -29 -26 -27 -6 3 -13 -5 -15 -16 -4 -27 -25 -35 -31
-11 -4 16 -5 16 -6 -2 -1 -11 -6 -27 -12 -35 -8 -11 -9 -9 -3 10 6 23 6 24
-11 10 -11 -9 -16 -10 -11 -2 4 6 2 12 -3 12 -6 0 -12 -17 -12 -37 -1 -37 -2
-37 -8 -8 l-7 30 -12 -35 c-9 -25 -15 -31 -21 -21 -6 9 -11 10 -15 2 -4 -6 -4
-16 -1 -21 3 -6 -1 -10 -10 -10 -9 0 -14 4 -11 8 3 5 -1 9 -9 9 -7 0 -16 -15
-20 -34 -6 -34 -9 -35 -58 -37 -28 -1 -47 -19 -47 -43 0 -10 165 -13 790 -13
l790 0 0 710 c0 699 0 710 -20 722 -11 7 -20 19 -20 27 0 12 3 12 12 3 17 -17
28 -15 28 4 0 8 -4 12 -10 9 -5 -3 -19 -1 -31 6 -16 8 -20 8 -14 -1z m25 -81
c0 -5 -4 -9 -10 -9 -5 0 -10 7 -10 16 0 8 5 12 10 9 6 -3 10 -10 10 -16z
m-338 -441 c-7 -7 -12 -8 -12 -2 0 14 12 26 19 19 2 -3 -1 -11 -7 -17z m-115
-85 c-3 -10 -5 -2 -5 17 0 19 2 27 5 18 2 -10 2 -26 0 -35z m-603 -529 c3 -8
2 -12 -4 -9 -6 3 -10 10 -10 16 0 14 7 11 14 -7z"/>
<path d="M8146 1314 c-4 -9 -4 -19 -1 -22 2 -3 7 3 11 12 4 9 4 19 1 22 -2 3
-7 -3 -11 -12z"/>
<path d="M8012 1230 c0 -14 2 -19 5 -12 2 6 2 18 0 25 -3 6 -5 1 -5 -13z"/>
<path d="M5290 1180 c0 -5 7 -10 15 -10 8 0 15 5 15 10 0 6 -7 10 -15 10 -8 0
-15 -4 -15 -10z"/>
<path d="M8011 1174 c0 -11 3 -14 6 -6 3 7 2 16 -1 19 -3 4 -6 -2 -5 -13z"/>
<path d="M8000 1109 c0 -5 5 -7 10 -4 6 3 10 8 10 11 0 2 -4 4 -10 4 -5 0 -10
-5 -10 -11z"/>
<path d="M5411 1074 c0 -11 3 -14 6 -6 3 7 2 16 -1 19 -3 4 -6 -2 -5 -13z"/>
<path d="M7990 1080 c0 -5 -7 -10 -15 -10 -8 0 -15 -9 -15 -20 0 -21 8 -25 26
-12 16 10 28 52 15 52 -6 0 -11 -4 -11 -10z"/>
<path d="M5300 1069 c0 -5 5 -7 10 -4 6 3 10 8 10 11 0 2 -4 4 -10 4 -5 0 -10
-5 -10 -11z"/>
<path d="M5326 966 c3 -22 16 -60 30 -85 13 -26 25 -64 28 -86 2 -22 7 -48 11
-58 4 -9 5 -26 2 -37 -7 -27 13 -37 30 -15 9 14 13 15 13 4 0 -12 2 -12 9 0 6
9 5 24 0 39 -5 13 -7 41 -4 61 5 32 3 31 -13 -13 -21 -56 -28 -52 -31 14 -1
25 -9 56 -18 69 -8 13 -18 43 -21 68 -4 24 -11 43 -17 43 -5 -1 -13 7 -17 17
-5 10 -6 2 -2 -21z"/>
<path d="M7771 984 c0 -11 3 -14 6 -6 3 7 2 16 -1 19 -3 4 -6 -2 -5 -13z"/>
<path d="M5300 946 c0 -8 5 -18 10 -21 6 -3 10 3 10 14 0 12 -4 21 -10 21 -5
0 -10 -6 -10 -14z"/>
<path d="M5310 896 c0 -8 5 -16 11 -18 7 -2 7 -17 0 -47 -8 -37 -7 -45 10 -62
14 -14 19 -15 19 -5 0 8 -4 18 -10 21 -17 10 -11 25 10 25 11 0 20 4 20 8 0
15 -25 62 -32 62 -5 0 -8 7 -8 15 0 8 -4 15 -10 15 -5 0 -10 -6 -10 -14z"/>
<path d="M5406 852 c-2 -4 -1 -14 5 -22 7 -12 9 -10 9 8 0 23 -5 28 -14 14z"/>
<path d="M5492 815 c0 -16 2 -22 5 -12 2 9 2 23 0 30 -3 6 -5 -1 -5 -18z"/>
<path d="M5461 774 c0 -11 3 -14 6 -6 3 7 2 16 -1 19 -3 4 -6 -2 -5 -13z"/>
<path d="M5290 705 c-13 -16 -3 -20 24 -9 9 3 13 10 10 15 -8 13 -20 11 -34
-6z"/>
<path d="M5260 682 c0 -17 4 -34 10 -37 6 -4 7 6 3 27 -8 44 -13 48 -13 10z"/>
<path d="M5041 684 c0 -11 3 -14 6 -6 3 7 2 16 -1 19 -3 4 -6 -2 -5 -13z"/>
<path d="M5318 673 c-30 -8 -20 -20 17 -21 25 -1 35 3 35 13 0 15 -17 17 -52
8z"/>
<path d="M5111 613 c1 -17 3 -21 6 -10 2 9 9 17 14 17 6 0 7 5 4 10 -12 19
-25 10 -24 -17z"/>
<path d="M5290 599 c0 -17 4 -28 10 -24 6 3 10 17 10 31 0 13 -4 24 -10 24 -5
0 -10 -14 -10 -31z"/>
<path d="M5324 614 c3 -9 6 -20 6 -25 0 -6 5 -7 10 -4 16 10 12 45 -6 45 -11
0 -14 -5 -10 -16z"/>
<path d="M5245 610 c-3 -5 -1 -10 4 -10 6 0 11 5 11 10 0 6 -2 10 -4 10 -3 0
-8 -4 -11 -10z"/>
<path d="M5015 590 c-3 -5 -1 -10 4 -10 6 0 11 5 11 10 0 6 -2 10 -4 10 -3 0
-8 -4 -11 -10z"/>
<path d="M5460 564 c0 -8 5 -12 10 -9 6 4 8 11 5 16 -9 14 -15 11 -15 -7z"/>
<path d="M5061 560 c0 -8 4 -22 9 -30 12 -18 12 -2 0 25 -6 13 -9 15 -9 5z"/>
<path d="M5095 520 c-3 -5 -1 -10 4 -10 6 0 11 5 11 10 0 6 -2 10 -4 10 -3 0
-8 -4 -11 -10z"/>
<path d="M4706 435 c4 -8 8 -15 10 -15 2 0 4 7 4 15 0 8 -4 15 -10 15 -5 0 -7
-7 -4 -15z"/>
<path d="M4806 423 c-6 -14 -5 -15 5 -6 7 7 10 15 7 18 -3 3 -9 -2 -12 -12z"/>
<path d="M4665 420 c-3 -5 -1 -10 4 -10 6 0 11 5 11 10 0 6 -2 10 -4 10 -3 0
-8 -4 -11 -10z"/>
<path d="M4391 234 c0 -11 3 -14 6 -6 3 7 2 16 -1 19 -3 4 -6 -2 -5 -13z"/>
<path d="M4071 14 c0 -11 3 -14 6 -6 3 7 2 16 -1 19 -3 4 -6 -2 -5 -13z"/>
</g>
</svg>
